<svg width="23" height="24" viewBox="0 0 23 24" fill="none" xmlns="http://www.w3.org/2000/svg">
<path fill-rule="evenodd" clip-rule="evenodd" d="M11.0999 0.900024C11.7075 0.900024 12.1999 1.39251 12.1999 2.00002V3.11114C12.1999 3.71865 11.7075 4.21114 11.0999 4.21114C10.4924 4.21114 9.99994 3.71865 9.99994 3.11114V2.00002C9.99994 1.39251 10.4924 0.900024 11.0999 0.900024ZM3.25106 4.15114C3.68063 3.72156 4.37711 3.72156 4.80669 4.15114L5.59236 4.93681C6.02194 5.36639 6.02194 6.06287 5.59236 6.49245C5.16279 6.92202 4.46631 6.92202 4.03673 6.49245L3.25106 5.70677C2.82148 5.2772 2.82148 4.58072 3.25106 4.15114ZM18.9488 4.15114C19.3784 4.58072 19.3784 5.2772 18.9488 5.70677L18.1632 6.49245C17.7336 6.92203 17.0371 6.92203 16.6075 6.49245C16.1779 6.06287 16.1779 5.36639 16.6075 4.93681L17.3932 4.15114C17.8228 3.72156 18.5192 3.72156 18.9488 4.15114ZM7.94939 8.8495C6.20938 10.5895 6.20938 13.4106 7.94939 15.1506L8.55727 15.7585C8.77267 15.9739 8.9657 16.2074 9.1349 16.4556H13.065C13.2342 16.2074 13.4272 15.9739 13.6426 15.7585L14.2505 15.1506C15.9905 13.4106 15.9905 10.5895 14.2505 8.8495C12.5105 7.10949 9.68939 7.10949 7.94939 8.8495ZM14.6953 18.0161C14.8222 17.7586 14.9914 17.521 15.1982 17.3141L15.8061 16.7062C18.4053 14.1071 18.4053 9.89302 15.8061 7.29386C13.207 4.69471 8.99291 4.69471 6.39375 7.29386C3.7946 9.89302 3.7946 14.1071 6.39375 16.7062L7.00164 17.3141C7.20852 17.521 7.37766 17.7586 7.50462 18.0161C7.51013 18.0281 7.51584 18.0399 7.52176 18.0516C7.68871 18.4033 7.77772 18.7909 7.77772 19.1877V19.7778C7.77772 21.6126 9.26513 23.1 11.0999 23.1C12.9348 23.1 14.4222 21.6126 14.4222 19.7778V19.1877C14.4222 18.7909 14.5112 18.4033 14.6781 18.0516C14.684 18.0399 14.6898 18.0281 14.6953 18.0161ZM12.2514 18.6556H9.94845C9.96786 18.8315 9.97772 19.0091 9.97772 19.1877V19.7778C9.97772 20.3976 10.4802 20.9 11.0999 20.9C11.7197 20.9 12.2222 20.3976 12.2222 19.7778V19.1877C12.2222 19.0091 12.232 18.8315 12.2514 18.6556ZM0 12C0 11.3925 0.492487 10.9 1.1 10.9H2.21111C2.81862 10.9 3.31111 11.3925 3.31111 12C3.31111 12.6075 2.81862 13.1 2.21111 13.1H1.1C0.492487 13.1 0 12.6075 0 12ZM18.8889 12C18.8889 11.3925 19.3814 10.9 19.9889 10.9H21.1C21.7075 10.9 22.2 11.3925 22.2 12C22.2 12.6075 21.7075 13.1 21.1 13.1H19.9889C19.3814 13.1 18.8889 12.6075 18.8889 12Z" fill="currentColor"/>
</svg>
