<svg width="30" height="24" viewBox="0 0 30 24" fill="none" xmlns="http://www.w3.org/2000/svg">
<path fill-rule="evenodd" clip-rule="evenodd" d="M2.52148 12.0471C4.30052 17.2266 9.21486 20.9471 14.9954 20.9471C20.7759 20.9471 25.6902 17.2267 27.4693 12.0472C25.6902 6.8676 20.7759 3.14711 14.9954 3.14711C9.21486 3.14711 4.30055 6.86755 2.52148 12.0471ZM0.314219 11.7174C2.27447 5.47632 8.10455 0.947113 14.9954 0.947113C21.8862 0.947113 27.7163 5.47638 29.6765 11.7176C29.7439 11.9321 29.7439 12.1622 29.6765 12.3768C27.7163 18.6179 21.8862 23.1471 14.9954 23.1471C8.10455 23.1471 2.27443 18.6179 0.314216 12.3767C0.246823 12.1621 0.246824 11.932 0.314219 11.7174ZM14.9947 8.8614C13.2353 8.8614 11.809 10.2877 11.809 12.0471C11.809 13.8065 13.2353 15.2328 14.9947 15.2328C16.7542 15.2328 18.1805 13.8065 18.1805 12.0471C18.1805 10.2877 16.7542 8.8614 14.9947 8.8614ZM9.60903 12.0471C9.60903 9.07267 12.0203 6.6614 14.9947 6.6614C17.9692 6.6614 20.3805 9.07267 20.3805 12.0471C20.3805 15.0216 17.9692 17.4328 14.9947 17.4328C12.0203 17.4328 9.60903 15.0216 9.60903 12.0471Z" fill="currentColor"/>
</svg>
