<svg width="23" height="24" viewBox="0 0 23 24" fill="none" xmlns="http://www.w3.org/2000/svg">
<path fill-rule="evenodd" clip-rule="evenodd" d="M0 4.50002C0 2.5118 1.61177 0.900024 3.6 0.900024H13.6C15.5882 0.900024 17.2 2.5118 17.2 4.50002V5.90002H18.6C20.5882 5.90002 22.2 7.5118 22.2 9.50002V19.5C22.2 21.4883 20.5882 23.1 18.6 23.1H8.6C6.61178 23.1 5 21.4883 5 19.5V18.1H3.6C1.61177 18.1 0 16.4882 0 14.5V4.50002ZM7.2 19.5C7.2 20.2732 7.8268 20.9 8.6 20.9H18.6C19.3732 20.9 20 20.2732 20 19.5V9.50002C20 8.72683 19.3732 8.10002 18.6 8.10002H8.6C7.8268 8.10002 7.2 8.72683 7.2 9.50002V19.5ZM15 5.90002H8.6C6.61178 5.90002 5 7.5118 5 9.50002V15.9H3.6C2.8268 15.9 2.2 15.2732 2.2 14.5V4.50002C2.2 3.72683 2.8268 3.10002 3.6 3.10002H13.6C14.3732 3.10002 15 3.72683 15 4.50002V5.90002Z" fill="currentColor"/>
</svg>
