<svg width="160" height="160" viewBox="0 0 160 160" fill="none" xmlns="http://www.w3.org/2000/svg">
<path fill-rule="evenodd" clip-rule="evenodd" d="M27.5025 48.3269C42.7315 45.6415 57.2539 55.8103 59.9392 71.0393C60.3228 73.2149 58.8702 75.2895 56.6946 75.6731C54.519 76.0567 52.4444 74.6041 52.0608 72.4285C50.1427 61.5507 39.7695 54.2873 28.8917 56.2053C26.7161 56.5889 24.6415 55.1363 24.2579 52.9607C23.8742 50.7851 25.3269 48.7105 27.5025 48.3269Z" fill="#47518F"/>
<path fill-rule="evenodd" clip-rule="evenodd" d="M131.108 56.2053C120.23 54.2873 109.858 61.5506 107.939 72.4286C107.556 74.6042 105.481 76.0568 103.305 75.6731C101.13 75.2894 99.6771 73.2148 100.061 71.0392C102.746 55.8104 117.268 45.6415 132.498 48.3269C134.673 48.7105 136.126 50.7851 135.742 52.9607C135.359 55.1363 133.284 56.5889 131.108 56.2053Z" fill="#47518F"/>
<path fill-rule="evenodd" clip-rule="evenodd" d="M64 111.901C64 103.065 71.1636 95.9015 80 95.9015C88.8364 95.9015 96 103.065 96 111.901C96 114.11 94.2091 115.901 92 115.901C89.7909 115.901 88 114.11 88 111.901C88 107.483 84.4184 103.901 80 103.901C75.5816 103.901 72 107.483 72 111.901C72 114.11 70.2091 115.901 68 115.901C65.7909 115.901 64 114.11 64 111.901Z" fill="#47518F"/>
<path fill-rule="evenodd" clip-rule="evenodd" d="M48 111.901C48 94.2283 62.3269 79.9015 80 79.9015C97.6731 79.9015 112 94.2283 112 111.901C112 114.11 110.209 115.901 108 115.901C105.791 115.901 104 114.11 104 111.901C104 98.6467 93.2549 87.9015 80 87.9015C66.7451 87.9015 56 98.6467 56 111.901C56 114.11 54.2091 115.901 52 115.901C49.7909 115.901 48 114.11 48 111.901Z" fill="#47518F"/>
<path fill-rule="evenodd" clip-rule="evenodd" d="M32 111.901C32 85.3917 53.4904 63.9015 80 63.9015C106.51 63.9015 128 85.3918 128 111.901C128 114.11 126.209 115.901 124 115.901C121.791 115.901 120 114.11 120 111.901C120 89.81 102.092 71.9015 80 71.9015C57.9086 71.9015 40 89.8101 40 111.901C40 114.11 38.2091 115.901 36 115.901C33.7909 115.901 32 114.11 32 111.901Z" fill="#47518F"/>
</svg>
