<svg width="14" height="14" viewBox="0 0 14 14" fill="none" xmlns="http://www.w3.org/2000/svg">
    <path fill-rule="evenodd" clip-rule="evenodd" d="M0.71967 0.46967C1.01256 0.176777 1.48744 0.176777 1.78033 0.46967L7.25 5.93934L12.7197 0.46967C13.0126 0.176777 13.4874 0.176777 13.7803 0.46967C14.0732 0.762564 14.0732 1.23744 13.7803 1.53033L8.31066 7L13.7803 12.4697C14.0732 12.7626 14.0732 13.2374 13.7803 13.5303C13.4874 13.8232 13.0126 13.8232 12.7197 13.5303L7.25 8.06066L1.78033 13.5303C1.48744 13.8232 1.01256 13.8232 0.71967 13.5303C0.426777 13.2374 0.426777 12.7626 0.71967 12.4697L6.18934 7L0.71967 1.53033C0.426777 1.23744 0.426777 0.762563 0.71967 0.46967Z" fill="currentColor" />
</svg>