<svg width="23" height="24" viewBox="0 0 23 24" fill="none" xmlns="http://www.w3.org/2000/svg">
<path fill-rule="evenodd" clip-rule="evenodd" d="M0 2.00002C0 1.39251 0.492487 0.900024 1.1 0.900024H6.1C6.70751 0.900024 7.2 1.39251 7.2 2.00002C7.2 2.60754 6.70751 3.10002 6.1 3.10002H2.2V7.00002C2.2 7.60754 1.70751 8.10002 1.1 8.10002C0.492487 8.10002 0 7.60754 0 7.00002V2.00002ZM15 2.00002C15 1.39251 15.4925 0.900024 16.1 0.900024H21.1C21.7075 0.900024 22.2 1.39251 22.2 2.00002V7.00002C22.2 7.60754 21.7075 8.10002 21.1 8.10002C20.4925 8.10002 20 7.60754 20 7.00002V3.10002H16.1C15.4925 3.10002 15 2.60754 15 2.00002ZM1.1 15.9C1.70751 15.9 2.2 16.3925 2.2 17V20.9H6.1C6.70751 20.9 7.2 21.3925 7.2 22C7.2 22.6075 6.70751 23.1 6.1 23.1H1.1C0.492487 23.1 0 22.6075 0 22V17C0 16.3925 0.492487 15.9 1.1 15.9ZM21.1 15.9C21.7075 15.9 22.2 16.3925 22.2 17V22C22.2 22.6075 21.7075 23.1 21.1 23.1H16.1C15.4925 23.1 15 22.6075 15 22C15 21.3925 15.4925 20.9 16.1 20.9H20V17C20 16.3925 20.4925 15.9 21.1 15.9Z" fill="currentColor"/>
</svg>
