<svg width="17" height="18" viewBox="0 0 17 18" fill="none" xmlns="http://www.w3.org/2000/svg">
<path fill-rule="evenodd" clip-rule="evenodd" d="M7.5499 1.75C5.75498 1.75 4.2999 3.20507 4.2999 5C4.2999 5.246 4.3271 5.48475 4.37836 5.71374C4.46881 6.11782 4.21467 6.51875 3.81062 6.60938C2.71675 6.85475 1.8999 7.83287 1.8999 9C1.8999 10.3531 2.9968 11.45 4.3499 11.45C4.76412 11.45 5.0999 11.7858 5.0999 12.2C5.0999 12.6142 4.76412 12.95 4.3499 12.95C2.16838 12.95 0.399902 11.1815 0.399902 9C0.399902 7.3629 1.39528 5.95962 2.81339 5.36023C2.80445 5.24123 2.7999 5.12109 2.7999 5C2.7999 2.37665 4.92655 0.25 7.5499 0.25C9.64072 0.25 11.4148 1.60025 12.0499 3.47601C14.4382 3.72586 16.2999 5.74552 16.2999 8.2C16.2999 10.4989 14.6675 12.4148 12.4991 12.855C12.0932 12.9374 11.6973 12.6751 11.6149 12.2692C11.5325 11.8632 11.7948 11.4674 12.2007 11.385C13.6838 11.0839 14.7999 9.77145 14.7999 8.2C14.7999 6.40507 13.3448 4.95 11.5499 4.95C11.5281 4.95 11.5064 4.95021 11.4847 4.95064C11.1225 4.95773 10.807 4.70489 10.735 4.34983C10.4342 2.86638 9.12158 1.75 7.5499 1.75ZM8.3499 6.65C8.76412 6.65 9.0999 6.98579 9.0999 7.4V15.1893L10.2196 14.0697C10.5125 13.7768 10.9873 13.7768 11.2802 14.0697C11.5731 14.3626 11.5731 14.8374 11.2802 15.1303L8.88023 17.5303C8.58734 17.8232 8.11247 17.8232 7.81957 17.5303L5.41957 15.1303C5.12668 14.8374 5.12668 14.3626 5.41957 14.0697C5.71247 13.7768 6.18734 13.7768 6.48023 14.0697L7.5999 15.1893V7.4C7.5999 6.98579 7.93569 6.65 8.3499 6.65Z" fill="currentColor"/>
</svg>
