<svg width="16" height="16" viewBox="0 0 16 16" fill="none" xmlns="http://www.w3.org/2000/svg">
<path fill-rule="evenodd" clip-rule="evenodd" d="M2.5 0.25C2.91421 0.25 3.25 0.585786 3.25 1V9.11445C4.26428 9.43302 5 10.3806 5 11.5C5 12.6194 4.26428 13.567 3.25 13.8855V15C3.25 15.4142 2.91421 15.75 2.5 15.75C2.08579 15.75 1.75 15.4142 1.75 15V13.8855C0.735723 13.567 0 12.6194 0 11.5C0 10.3806 0.735723 9.43302 1.75 9.11445V1C1.75 0.585786 2.08579 0.25 2.5 0.25ZM7.75 0.25C8.16421 0.25 8.5 0.585786 8.5 1V2.11445C9.51428 2.43302 10.25 3.38059 10.25 4.5C10.25 5.61941 9.51428 6.56698 8.5 6.88555V15C8.5 15.4142 8.16421 15.75 7.75 15.75C7.33579 15.75 7 15.4142 7 15V6.88555C5.98572 6.56698 5.25 5.61941 5.25 4.5C5.25 3.38059 5.98572 2.43302 7 2.11445V1C7 0.585786 7.33579 0.25 7.75 0.25ZM13 0.25C13.4142 0.25 13.75 0.585786 13.75 1V9.11445C14.7643 9.43302 15.5 10.3806 15.5 11.5C15.5 12.6194 14.7643 13.567 13.75 13.8855V15C13.75 15.4142 13.4142 15.75 13 15.75C12.5858 15.75 12.25 15.4142 12.25 15V13.8855C11.2357 13.567 10.5 12.6194 10.5 11.5C10.5 10.3806 11.2357 9.43302 12.25 9.11445V1C12.25 0.585786 12.5858 0.25 13 0.25ZM7.75 3.5C7.19772 3.5 6.75 3.94772 6.75 4.5C6.75 5.05228 7.19772 5.5 7.75 5.5C8.30228 5.5 8.75 5.05228 8.75 4.5C8.75 3.94772 8.30228 3.5 7.75 3.5ZM2.5 10.5C1.94772 10.5 1.5 10.9477 1.5 11.5C1.5 12.0523 1.94772 12.5 2.5 12.5C3.05228 12.5 3.5 12.0523 3.5 11.5C3.5 10.9477 3.05228 10.5 2.5 10.5ZM13 10.5C12.4477 10.5 12 10.9477 12 11.5C12 12.0523 12.4477 12.5 13 12.5C13.5523 12.5 14 12.0523 14 11.5C14 10.9477 13.5523 10.5 13 10.5Z" fill="currentColor"/>
</svg>
