<svg width="16" height="16" viewBox="0 0 16 16" fill="none" xmlns="http://www.w3.org/2000/svg">
<path fill-rule="evenodd" clip-rule="evenodd" d="M0 2.75C0 1.36929 1.11929 0.25 2.5 0.25H4.25C5.63071 0.25 6.75 1.36929 6.75 2.75V4.5C6.75 5.88071 5.63071 7 4.25 7H2.5C1.11929 7 0 5.88071 0 4.5V2.75ZM2.5 1.75C1.94772 1.75 1.5 2.19772 1.5 2.75V4.5C1.5 5.05228 1.94772 5.5 2.5 5.5H4.25C4.80228 5.5 5.25 5.05228 5.25 4.5V2.75C5.25 2.19772 4.80228 1.75 4.25 1.75H2.5ZM8.75 2.75C8.75 1.36929 9.86929 0.25 11.25 0.25H13C14.3807 0.25 15.5 1.36929 15.5 2.75V4.5C15.5 5.88071 14.3807 7 13 7H11.25C9.86929 7 8.75 5.88071 8.75 4.5V2.75ZM11.25 1.75C10.6977 1.75 10.25 2.19772 10.25 2.75V4.5C10.25 5.05228 10.6977 5.5 11.25 5.5H13C13.5523 5.5 14 5.05228 14 4.5V2.75C14 2.19772 13.5523 1.75 13 1.75H11.25ZM0 11.5C0 10.1193 1.11929 9 2.5 9H4.25C5.63071 9 6.75 10.1193 6.75 11.5V13.25C6.75 14.6307 5.63071 15.75 4.25 15.75H2.5C1.11929 15.75 0 14.6307 0 13.25V11.5ZM2.5 10.5C1.94772 10.5 1.5 10.9477 1.5 11.5V13.25C1.5 13.8023 1.94772 14.25 2.5 14.25H4.25C4.80228 14.25 5.25 13.8023 5.25 13.25V11.5C5.25 10.9477 4.80228 10.5 4.25 10.5H2.5ZM8.75 11.5C8.75 10.1193 9.86929 9 11.25 9H13C14.3807 9 15.5 10.1193 15.5 11.5V13.25C15.5 14.6307 14.3807 15.75 13 15.75H11.25C9.86929 15.75 8.75 14.6307 8.75 13.25V11.5ZM11.25 10.5C10.6977 10.5 10.25 10.9477 10.25 11.5V13.25C10.25 13.8023 10.6977 14.25 11.25 14.25H13C13.5523 14.25 14 13.8023 14 13.25V11.5C14 10.9477 13.5523 10.5 13 10.5H11.25Z" fill="currentColor"/>
</svg>
