<svg width="23" height="24" viewBox="0 0 23 24" fill="none" xmlns="http://www.w3.org/2000/svg">
<path fill-rule="evenodd" clip-rule="evenodd" d="M10.9134 1.18037C11.3311 0.806571 11.963 0.806576 12.3806 1.18038C14.5887 3.15668 17.5019 4.35709 20.6981 4.35709C20.914 4.35709 21.1285 4.35162 21.3415 4.34082C21.863 4.31436 22.3312 4.65823 22.4621 5.16377C22.7674 6.3432 22.9295 7.5791 22.9295 8.85126C22.9295 15.6914 18.2511 21.4361 11.9213 23.0653C11.7414 23.1116 11.5528 23.1116 11.3729 23.0653C5.0431 21.4361 0.364746 15.6914 0.364746 8.85126C0.364746 7.57905 0.526875 6.34309 0.832173 5.16362C0.963027 4.65809 1.43127 4.31423 1.9528 4.34068C2.16578 4.35148 2.38026 4.35695 2.59612 4.35695C5.79225 4.35695 8.70539 3.1566 10.9134 1.18037ZM2.77525 6.55588C2.63709 7.29924 2.56475 8.06638 2.56475 8.85126C2.56475 14.5641 6.40539 19.3827 11.6471 20.8608C16.8888 19.3827 20.7295 14.5641 20.7295 8.85126C20.7295 8.06643 20.6571 7.29933 20.519 6.55602C17.174 6.51598 14.0965 5.35587 11.647 3.43457C9.19755 5.35578 6.12011 6.51584 2.77525 6.55588ZM15.8191 9.20481C16.2486 9.63439 16.2486 10.3309 15.8191 10.7605L11.2936 15.2859C10.864 15.7155 10.1675 15.7155 9.73792 15.2859L7.47517 13.0232C7.0456 12.5936 7.0456 11.8971 7.47517 11.4676C7.90475 11.038 8.60123 11.038 9.03081 11.4676L10.5157 12.9525L14.2634 9.20481C14.693 8.77524 15.3895 8.77524 15.8191 9.20481Z" fill="currentColor"/>
</svg>
