<svg width="16" height="16" viewBox="0 0 16 16" fill="none" xmlns="http://www.w3.org/2000/svg">
<path fill-rule="evenodd" clip-rule="evenodd" d="M7.75 1.75C4.29822 1.75 1.5 4.54822 1.5 8C1.5 11.4518 4.29822 14.25 7.75 14.25C11.2018 14.25 14 11.4518 14 8C14 4.54822 11.2018 1.75 7.75 1.75ZM0 8C0 3.71979 3.46979 0.25 7.75 0.25C12.0302 0.25 15.5 3.71979 15.5 8C15.5 12.2802 12.0302 15.75 7.75 15.75C3.46979 15.75 0 12.2802 0 8ZM7 4.88889C7 4.47468 7.33579 4.13889 7.75 4.13889H7.75778C8.17199 4.13889 8.50778 4.47468 8.50778 4.88889C8.50778 5.3031 8.17199 5.63889 7.75778 5.63889H7.75C7.33579 5.63889 7 5.3031 7 4.88889ZM6.22222 8C6.22222 7.58579 6.55801 7.25 6.97222 7.25H7.75C8.16421 7.25 8.5 7.58579 8.5 8V10.3611H8.52778C8.94199 10.3611 9.27778 10.6969 9.27778 11.1111C9.27778 11.5253 8.94199 11.8611 8.52778 11.8611H7.75C7.33579 11.8611 7 11.5253 7 11.1111V8.75H6.97222C6.55801 8.75 6.22222 8.41421 6.22222 8Z" fill="currentColor"/>
</svg>
