<svg width="23" height="24" viewBox="0 0 23 24" fill="none" xmlns="http://www.w3.org/2000/svg">
<path fill-rule="evenodd" clip-rule="evenodd" d="M7.76667 3.10002C5.91958 3.10002 4.42222 4.59738 4.42222 6.44447C4.42222 8.29155 5.91958 9.78891 7.76667 9.78891C8.76061 9.78891 9.65328 9.35533 10.2659 8.66698C10.2715 8.66041 10.2773 8.65388 10.2831 8.64741C10.7987 8.05901 11.1111 7.28823 11.1111 6.44447C11.1111 5.6007 10.7986 4.8299 10.2831 4.24149C10.2773 4.23504 10.2715 4.22854 10.2659 4.22199C9.65331 3.53362 8.76062 3.10002 7.76667 3.10002ZM11.1001 2.01361C10.1723 1.31448 9.01788 0.900024 7.76667 0.900024C4.70456 0.900024 2.22222 3.38236 2.22222 6.44447C2.22222 9.50658 4.70456 11.9889 7.76667 11.9889C9.01788 11.9889 10.1723 11.5745 11.1001 10.8753C12.0275 11.5738 13.1823 11.9889 14.4333 11.9889C17.4954 11.9889 19.9778 9.50658 19.9778 6.44447C19.9778 3.38236 17.4954 0.900024 14.4333 0.900024C13.1823 0.900024 12.0275 1.31515 11.1001 2.01361ZM12.5672 3.66846C13.0403 4.48483 13.3111 5.43302 13.3111 6.44447C13.3111 7.45592 13.0403 8.40411 12.5672 9.22048C13.1005 9.57992 13.7422 9.78891 14.4333 9.78891C16.2804 9.78891 17.7778 8.29156 17.7778 6.44447C17.7778 4.59738 16.2804 3.10002 14.4333 3.10002C13.7422 3.10002 13.1005 3.30902 12.5672 3.66846ZM7.76667 15.3222C4.69228 15.3222 2.2 17.8145 2.2 20.8889V20.9H13.3333V20.8889C13.3333 17.8145 10.8411 15.3222 7.76667 15.3222ZM15.5333 20.9H20V20.8889C20 17.8145 17.5077 15.3222 14.4333 15.3222C14.0442 15.3222 13.6648 15.362 13.2989 15.4377C14.6806 16.8399 15.5333 18.7648 15.5333 20.8889V20.9ZM11.1003 13.8721C10.0902 13.3913 8.95984 13.1222 7.76667 13.1222C3.47726 13.1222 0 16.5995 0 20.8889V22C0 22.6075 0.492487 23.1 1.1 23.1H21.1C21.7075 23.1 22.2 22.6075 22.2 22V20.8889C22.2 16.5995 18.7227 13.1222 14.4333 13.1222C13.242 13.1222 12.1112 13.3912 11.1003 13.8721Z" fill="currentColor"/>
</svg>
