<svg width="10" height="3" viewBox="0 0 10 3" fill="none" xmlns="http://www.w3.org/2000/svg">
<path fill-rule="evenodd" clip-rule="evenodd" d="M0.0996094 1.49998C0.0996094 0.726777 0.726411 0.0999756 1.49961 0.0999756C2.27281 0.0999756 2.89961 0.726777 2.89961 1.49998C2.89961 2.27317 2.27281 2.89998 1.49961 2.89998C0.726411 2.89998 0.0996094 2.27317 0.0996094 1.49998ZM3.59961 1.49998C3.59961 0.726777 4.22641 0.0999756 4.99961 0.0999756C5.77281 0.0999756 6.39961 0.726777 6.39961 1.49998C6.39961 2.27317 5.77281 2.89998 4.99961 2.89998C4.22641 2.89998 3.59961 2.27317 3.59961 1.49998ZM7.09961 1.49998C7.09961 0.726777 7.72641 0.0999756 8.49961 0.0999756C9.27281 0.0999756 9.89961 0.726777 9.89961 1.49998C9.89961 2.27317 9.27281 2.89998 8.49961 2.89998C7.72641 2.89998 7.09961 2.27317 7.09961 1.49998Z" fill="currentColor"/>
</svg>
