<svg width="23" height="24" viewBox="0 0 23 24" fill="none" xmlns="http://www.w3.org/2000/svg">
<path fill-rule="evenodd" clip-rule="evenodd" d="M6.65556 0.900024C7.26307 0.900024 7.75556 1.39251 7.75556 2.00002V3.12225H14.4444V2.00002C14.4444 1.39251 14.9369 0.900024 15.5444 0.900024C16.152 0.900024 16.6444 1.39251 16.6444 2.00002V3.12225H18.8778C20.7126 3.12225 22.2 4.60966 22.2 6.44447V19.7778C22.2 21.6126 20.7126 23.1 18.8778 23.1H3.32222C1.48741 23.1 0 21.6126 0 19.7778V6.44447C0 4.60966 1.48741 3.12225 3.32222 3.12225H5.55556V2.00002C5.55556 1.39251 6.04804 0.900024 6.65556 0.900024ZM5.55556 5.32225H3.32222C2.70244 5.32225 2.2 5.82468 2.2 6.44447V19.7778C2.2 20.3976 2.70244 20.9 3.32222 20.9H18.8778C19.4976 20.9 20 20.3976 20 19.7778V6.44447C20 5.82468 19.4976 5.32225 18.8778 5.32225H16.6444V6.44447C16.6444 7.05198 16.152 7.54447 15.5444 7.54447C14.9369 7.54447 14.4444 7.05198 14.4444 6.44447V5.32225H7.75556V6.44447C7.75556 7.05198 7.26307 7.54447 6.65556 7.54447C6.04804 7.54447 5.55556 7.05198 5.55556 6.44447V5.32225ZM4.44444 10.8889C4.44444 10.2814 4.93693 9.78891 5.54444 9.78891H16.6556C17.2631 9.78891 17.7556 10.2814 17.7556 10.8889C17.7556 11.4964 17.2631 11.9889 16.6556 11.9889H5.54444C4.93693 11.9889 4.44444 11.4964 4.44444 10.8889Z" fill="currentColor"/>
</svg>
