<svg width="16" height="16" viewBox="0 0 16 16" fill="none" xmlns="http://www.w3.org/2000/svg">
    <path fill-rule="evenodd" clip-rule="evenodd" d="M6.2181 1.84764C6.73524 -0.282547 9.76476 -0.282544 10.2819 1.84764C10.3763 2.23653 10.8219 2.42108 11.1636 2.21285C13.0356 1.07226 15.1777 3.21445 14.0371 5.08639C13.8289 5.42814 14.0135 5.87369 14.4024 5.9681C16.5325 6.48524 16.5325 9.51476 14.4024 10.0319C14.0135 10.1263 13.8289 10.5719 14.0371 10.9136C15.1777 12.7855 13.0356 14.9277 11.1636 13.7871C10.8219 13.5789 10.3763 13.7635 10.2819 14.1524C9.76476 16.2825 6.73524 16.2825 6.2181 14.1524C6.12369 13.7635 5.67814 13.5789 5.33639 13.7871C3.46445 14.9277 1.32226 12.7856 2.46285 10.9136C2.67108 10.5719 2.48653 10.1263 2.09764 10.0319C-0.0325439 9.51476 -0.0325474 6.48524 2.09764 5.9681C2.48653 5.87369 2.67108 5.42814 2.46285 5.08639C1.32226 3.21445 3.46445 1.07226 5.33639 2.21285C5.67814 2.42108 6.12369 2.23653 6.2181 1.84764ZM8.82424 2.20151C8.67809 1.5995 7.82191 1.5995 7.67576 2.20151C7.3417 3.57758 5.76515 4.23061 4.5559 3.4938C4.02687 3.17146 3.42146 3.77686 3.7438 4.3059C4.48061 5.51515 3.82758 7.0917 2.45151 7.42576C1.8495 7.57191 1.8495 8.42809 2.45151 8.57424C3.82758 8.90831 4.48061 10.4849 3.7438 11.6941C3.42146 12.2231 4.02687 12.8285 4.5559 12.5062C5.76515 11.7694 7.3417 12.4224 7.67576 13.7985C7.82191 14.4005 8.67809 14.4005 8.82424 13.7985C9.15831 12.4224 10.7349 11.7694 11.9441 12.5062C12.4731 12.8285 13.0785 12.2231 12.7562 11.6941C12.0194 10.4849 12.6724 8.90831 14.0485 8.57424C14.6505 8.42809 14.6505 7.57191 14.0485 7.42576C12.6724 7.0917 12.0194 5.51515 12.7562 4.3059C13.0785 3.77686 12.4731 3.17146 11.9441 3.4938C10.7349 4.23061 9.15831 3.57758 8.82424 2.20151ZM8.25 6.41667C7.37555 6.41667 6.66667 7.12555 6.66667 8C6.66667 8.87445 7.37555 9.58333 8.25 9.58333C9.12445 9.58333 9.83333 8.87445 9.83333 8C9.83333 7.12555 9.12445 6.41667 8.25 6.41667ZM5.16667 8C5.16667 6.29712 6.54712 4.91667 8.25 4.91667C9.95288 4.91667 11.3333 6.29712 11.3333 8C11.3333 9.70288 9.95288 11.0833 8.25 11.0833C6.54712 11.0833 5.16667 9.70288 5.16667 8Z" fill="currentColor" />
</svg>