<svg width="16" height="16" viewBox="0 0 16 16" fill="none" xmlns="http://www.w3.org/2000/svg">
<path fill-rule="evenodd" clip-rule="evenodd" d="M7.50047 0.441145C7.78523 0.186282 8.21608 0.186285 8.50084 0.441153C10.05 1.82772 12.094 2.66995 14.3364 2.66995C14.4878 2.66995 14.6383 2.66611 14.7878 2.65853C15.1433 2.64049 15.4626 2.87495 15.5518 3.21963C15.7651 4.04361 15.8784 4.90706 15.8784 5.79586C15.8784 10.5746 12.6099 14.5881 8.18765 15.7263C8.06502 15.7579 7.93639 15.7579 7.81376 15.7263C3.3915 14.5881 0.123047 10.5746 0.123047 5.79586C0.123047 4.90702 0.236319 4.04354 0.449608 3.21953C0.538826 2.87485 0.858085 2.6404 1.21367 2.65843C1.36309 2.66601 1.51357 2.66985 1.66501 2.66985C3.90741 2.66985 5.95131 1.82766 7.50047 0.441145ZM1.77375 4.16928C1.67485 4.69587 1.62305 5.23952 1.62305 5.79586C1.62305 9.80604 4.32033 13.1881 8.0007 14.2233C11.6811 13.1881 14.3784 9.80604 14.3784 5.79586C14.3784 5.23956 14.3266 4.69594 14.2277 4.16938C11.8788 4.14495 9.71796 3.32998 8.00064 1.97875C6.28335 3.32992 4.12257 4.14486 1.77375 4.16928ZM8.0007 5.04586C8.41492 5.04586 8.7507 5.38165 8.7507 5.79586V7.37979C8.7507 7.794 8.41492 8.12979 8.0007 8.12979C7.58649 8.12979 7.2507 7.794 7.2507 7.37979V5.79586C7.2507 5.38165 7.58649 5.04586 8.0007 5.04586ZM7.2507 10.5476C7.2507 10.1334 7.58649 9.79763 8.0007 9.79763H8.00862C8.42284 9.79763 8.75862 10.1334 8.75862 10.5476C8.75862 10.9618 8.42284 11.2976 8.00862 11.2976H8.0007C7.58649 11.2976 7.2507 10.9618 7.2507 10.5476Z" fill="currentColor"/>
</svg>
