<svg width="16" height="17" viewBox="0 0 16 17" fill="none" xmlns="http://www.w3.org/2000/svg">
<path fill-rule="evenodd" clip-rule="evenodd" d="M7.37742 0.941145C7.66218 0.686282 8.09304 0.686285 8.37779 0.941153C9.92696 2.32772 11.9709 3.16995 14.2134 3.16995C14.3648 3.16995 14.5153 3.16611 14.6647 3.15853C15.0203 3.14049 15.3396 3.37495 15.4288 3.71963C15.642 4.54361 15.7553 5.40706 15.7553 6.29586C15.7553 11.0746 12.4869 15.0881 8.0646 16.2263C7.94197 16.2579 7.81335 16.2579 7.69071 16.2263C3.26845 15.0881 0 11.0746 0 6.29586C0 5.40702 0.113272 4.54354 0.326561 3.71953C0.415779 3.37485 0.735038 3.1404 1.09062 3.15843C1.24005 3.16601 1.39052 3.16985 1.54196 3.16985C3.78436 3.16985 5.82826 2.32766 7.37742 0.941145ZM1.65071 4.66928C1.55181 5.19587 1.5 5.73952 1.5 6.29586C1.5 10.306 4.19728 13.6881 7.87766 14.7233C11.558 13.6881 14.2553 10.306 14.2553 6.29586C14.2553 5.73956 14.2035 5.19594 14.1046 4.66938C11.7557 4.64495 9.59491 3.82998 7.8776 2.47875C6.1603 3.82992 3.99953 4.64486 1.65071 4.66928ZM10.7839 6.5575C11.0768 6.85039 11.0768 7.32526 10.7839 7.61816L7.61602 10.786C7.32313 11.0789 6.84826 11.0789 6.55536 10.786L4.97144 9.20208C4.67855 8.90919 4.67855 8.43431 4.97144 8.14142C5.26433 7.84853 5.73921 7.84853 6.0321 8.14142L7.08569 9.19501L9.72321 6.5575C10.0161 6.2646 10.491 6.2646 10.7839 6.5575Z" fill="currentColor"/>
</svg>
