<svg width="23" height="24" viewBox="0 0 23 24" fill="none" xmlns="http://www.w3.org/2000/svg">
<path fill-rule="evenodd" clip-rule="evenodd" d="M2.20001 11.9889C2.2 11.9926 2.2 11.9963 2.2 12C2.2 16.1521 5.04321 19.64 8.88889 20.6232V18.6667C8.88889 18.0469 8.38645 17.5445 7.76667 17.5445C5.93185 17.5445 4.44444 16.0571 4.44444 14.2222V13.1111C4.44444 12.4914 3.94201 11.9889 3.32222 11.9889H2.20001ZM2.47683 9.78891H3.32222C5.15703 9.78891 6.64444 11.2763 6.64444 13.1111V14.2222C6.64444 14.842 7.14688 15.3445 7.76667 15.3445C9.60148 15.3445 11.0889 16.8319 11.0889 18.6667V20.9C11.0926 20.9 11.0963 20.9 11.1 20.9C11.8713 20.9 12.6197 20.8019 13.3333 20.6175V18.6667C13.3333 16.8319 14.8207 15.3445 16.6556 15.3445H19.3503C19.7692 14.3119 20 13.1829 20 12C20 10.8171 19.7692 9.68812 19.3503 8.65558L18.8778 8.65558C18.258 8.65558 17.7556 9.15802 17.7556 9.7778C17.7556 11.6126 16.2681 13.1 14.4333 13.1C12.5985 13.1 11.1111 11.6126 11.1111 9.7778C11.1111 9.15802 10.6087 8.65558 9.98889 8.65558H9.43333C7.37681 8.65558 5.69419 7.05469 5.5637 5.03113C4.06828 6.22072 2.96446 7.88151 2.47683 9.78891ZM7.75556 3.74978V4.7778C7.75556 5.70441 8.50672 6.45558 9.43333 6.45558H9.98889C11.8237 6.45558 13.3111 7.94299 13.3111 9.7778C13.3111 10.3976 13.8135 10.9 14.4333 10.9C15.0531 10.9 15.5556 10.3976 15.5556 9.7778C15.5556 8.20043 16.6549 6.87982 18.1291 6.54028C16.5007 4.44681 13.9576 3.10002 11.1 3.10002C9.9171 3.10002 8.78809 3.3308 7.75556 3.74978ZM21.0457 7.06571C19.2292 3.41134 15.4579 0.900024 11.1 0.900024C4.96964 0.900024 0 5.86966 0 12C0 17.7144 4.31807 22.4202 9.86925 23.0326C10.2734 23.0771 10.684 23.1 11.1 23.1C17.2304 23.1 22.2 18.1304 22.2 12C22.2 10.2283 21.7849 8.55354 21.0467 7.06767C21.0464 7.06702 21.046 7.06636 21.0457 7.06571ZM18.0624 17.5445H16.6556C16.0358 17.5445 15.5333 18.0469 15.5333 18.6667V19.719C16.5075 19.1583 17.3655 18.4184 18.0624 17.5445Z" fill="currentColor"/>
</svg>
