<svg width="16" height="16" viewBox="0 0 16 16" fill="none" xmlns="http://www.w3.org/2000/svg">
<path fill-rule="evenodd" clip-rule="evenodd" d="M0.581574 1.26739C0.952466 0.711055 1.54721 0.25 2.30556 0.25H13.1944C13.9528 0.25 14.5475 0.711055 14.9184 1.26739C15.2928 1.82897 15.5 2.56158 15.5 3.33333V12.6667C15.5 13.4384 15.2928 14.171 14.9184 14.7326C14.5475 15.2889 13.9528 15.75 13.1944 15.75H2.30556C1.54721 15.75 0.952466 15.2889 0.581574 14.7326C0.207187 14.171 0 13.4384 0 12.6667V3.33333C0 2.56158 0.207187 1.82897 0.581574 1.26739ZM1.82965 2.09944C1.64104 2.38236 1.5 2.81642 1.5 3.33333V4.91667H14V3.33333C14 2.81642 13.859 2.38236 13.6704 2.09944C13.4782 1.81128 13.2952 1.75 13.1944 1.75H2.30556C2.20479 1.75 2.02176 1.81128 1.82965 2.09944ZM14 6.41667H8.5V9.58333H14V6.41667ZM14 11.0833H8.5V14.25H13.1944C13.2952 14.25 13.4782 14.1887 13.6704 13.9006C13.859 13.6176 14 13.1836 14 12.6667V11.0833ZM7 14.25V11.0833H1.5V12.6667C1.5 13.1836 1.64104 13.6176 1.82965 13.9006C2.02176 14.1887 2.20479 14.25 2.30556 14.25H7ZM1.5 9.58333H7V6.41667H1.5V9.58333Z" fill="currentColor"/>
</svg>
