<svg width="20" height="20" viewBox="0 0 20 20" fill="none" xmlns="http://www.w3.org/2000/svg">
<path d="M17.9118 9.1853C14.2279 7.61888 12.4816 5.94188 10.9191 2.32621C10.3272 0.855614 9.82721 0.365416 9.11397 2.11981C7.55515 5.8608 5.69485 7.64099 2.03309 9.1853C1.66544 9.35484 1.00368 9.6497 1 9.99984C1.00368 10.35 1.66176 10.6448 2.03309 10.8144C5.69118 12.355 7.55515 14.1389 9.11397 17.8799C9.83456 19.6674 10.3346 19.1035 10.9191 17.6735C12.4816 14.0578 14.2279 12.3808 17.9118 10.8144C18.2978 10.6301 18.9375 10.3868 19 10.0183V9.97773C18.9338 9.61284 18.3015 9.3659 17.9118 9.18161V9.1853Z" fill="white" fill-opacity="0.4" stroke="white" stroke-width="1.5"/>
</svg>
