<svg width="26" height="24" viewBox="0 0 26 24" fill="none" xmlns="http://www.w3.org/2000/svg">
<path fill-rule="evenodd" clip-rule="evenodd" d="M10.438 3.10002C9.96986 3.10002 9.53274 3.33397 9.27309 3.72344L8.25742 5.24695C7.58974 6.24846 6.46571 6.85002 5.26204 6.85002H4.1C3.3268 6.85002 2.7 7.47683 2.7 8.25002V19.5C2.7 20.2732 3.3268 20.9 4.1 20.9H21.6C22.3732 20.9 23 20.2732 23 19.5V8.25002C23 7.47683 22.3732 6.85002 21.6 6.85002H20.438C19.2343 6.85002 18.1103 6.24846 17.4426 5.24695L16.4269 3.72344C16.1673 3.33397 15.7301 3.10002 15.262 3.10002H10.438ZM7.44258 2.5031C8.11026 1.50159 9.23429 0.900024 10.438 0.900024H15.262C16.4657 0.900024 17.5897 1.50159 18.2574 2.5031L19.2731 4.02661C19.5327 4.41608 19.9699 4.65002 20.438 4.65002H21.6C23.5882 4.65002 25.2 6.2618 25.2 8.25002V19.5C25.2 21.4883 23.5882 23.1 21.6 23.1H4.1C2.11177 23.1 0.5 21.4882 0.5 19.5V8.25002C0.5 6.2618 2.11177 4.65002 4.1 4.65002H5.26204C5.73013 4.65002 6.16726 4.41608 6.42691 4.0266L7.44258 2.5031ZM12.85 10.6C11.3864 10.6 10.2 11.7865 10.2 13.25C10.2 14.7136 11.3864 15.9 12.85 15.9C14.3136 15.9 15.5 14.7136 15.5 13.25C15.5 11.7865 14.3136 10.6 12.85 10.6ZM8 13.25C8 10.5714 10.1714 8.40002 12.85 8.40002C15.5286 8.40002 17.7 10.5714 17.7 13.25C17.7 15.9286 15.5286 18.1 12.85 18.1C10.1714 18.1 8 15.9286 8 13.25Z" fill="currentColor"/>
</svg>
