<svg width="23" height="24" viewBox="0 0 23 24" fill="none" xmlns="http://www.w3.org/2000/svg">
<path fill-rule="evenodd" clip-rule="evenodd" d="M0 4.50002C0 2.5118 1.61177 0.900024 3.6 0.900024H18.6C20.5882 0.900024 22.2 2.5118 22.2 4.50002V19.5C22.2 21.4883 20.5882 23.1 18.6 23.1H3.6C1.61177 23.1 0 21.4883 0 19.5V4.50002ZM3.6 3.10002C2.8268 3.10002 2.2 3.72683 2.2 4.50002V19.5C2.2 20.2732 2.8268 20.9 3.6 20.9H18.6C19.3732 20.9 20 20.2732 20 19.5V4.50002C20 3.72683 19.3732 3.10002 18.6 3.10002H3.6ZM16.1 5.90002C16.7075 5.90002 17.2 6.39251 17.2 7.00002V17C17.2 17.6075 16.7075 18.1 16.1 18.1C15.4925 18.1 15 17.6075 15 17V7.00002C15 6.39251 15.4925 5.90002 16.1 5.90002ZM11.1 9.65002C11.7075 9.65002 12.2 10.1425 12.2 10.75V17C12.2 17.6075 11.7075 18.1 11.1 18.1C10.4925 18.1 10 17.6075 10 17V10.75C10 10.1425 10.4925 9.65002 11.1 9.65002ZM6.1 13.4C6.70751 13.4 7.2 13.8925 7.2 14.5V17C7.2 17.6075 6.70751 18.1 6.1 18.1C5.49249 18.1 5 17.6075 5 17V14.5C5 13.8925 5.49249 13.4 6.1 13.4Z" fill="currentColor"/>
</svg>
