<?xml version="1.0" standalone="no"?>
<!DOCTYPE svg PUBLIC "-//W3C//DTD SVG 20010904//EN"
 "http://www.w3.org/TR/2001/REC-SVG-20010904/DTD/svg10.dtd">
<svg version="1.0" xmlns="http://www.w3.org/2000/svg"
 width="360.000000pt" height="360.000000pt" viewBox="0 0 360.000000 360.000000"
 preserveAspectRatio="xMidYMid meet">
<metadata>
Created by potrace 1.14, written by Peter Selinger 2001-2017
</metadata>
<g transform="translate(0.000000,360.000000) scale(0.100000,-0.100000)"
fill="#000000" stroke="none">
<path d="M1854 3168 c-15 -24 -30 -144 -22 -173 5 -17 5 -41 2 -55 -11 -39 -4
-70 30 -140 25 -49 42 -70 71 -87 30 -17 36 -23 23 -28 -23 -9 -78 -89 -97
-143 -29 -82 -10 -104 60 -69 23 11 61 40 84 64 23 24 45 43 48 43 4 0 13 -15
20 -33 9 -21 36 -47 78 -76 60 -40 67 -42 114 -37 28 3 56 2 63 -3 12 -7 63
-2 128 14 32 7 37 33 14 71 -33 52 -118 111 -252 176 -58 27 -64 38 -36 74 14
18 5 64 -14 70 -9 3 -31 -2 -47 -10 -17 -9 -32 -16 -35 -16 -2 0 -12 21 -20
48 -17 50 -73 181 -95 220 -20 37 -82 102 -97 102 -7 0 -16 -5 -20 -12z"/>
<path d="M2690 2909 c-7 -23 -22 -67 -36 -97 -13 -30 -24 -63 -24 -74 0 -26
35 -102 55 -118 21 -17 19 -29 -4 -23 -28 7 -53 -37 -53 -95 0 -77 72 -191
124 -193 42 -2 73 3 86 13 18 15 15 7 -18 -60 -35 -72 -37 -88 -10 -97 23 -7
59 13 98 54 l25 26 -6 -41 c-10 -60 8 -98 63 -139 59 -43 86 -44 160 -4 58 31
68 42 77 89 6 33 11 37 31 22 35 -25 68 -33 110 -27 48 7 82 36 112 95 11 21
30 41 42 45 78 22 95 39 60 62 -23 14 -252 79 -312 88 -25 4 -58 9 -75 11 -54
9 -95 25 -95 39 0 7 24 21 53 30 54 18 82 35 57 35 -8 0 -34 -7 -57 -16 -39
-15 -45 -15 -66 -1 -13 8 -42 47 -65 85 -23 38 -48 72 -56 75 -8 3 -3 -12 14
-37 38 -56 53 -97 41 -109 -15 -15 -28 -1 -72 86 -63 125 -160 273 -199 304
-30 24 -49 15 -60 -28z"/>
<path d="M2106 2875 c4 -8 10 -15 15 -15 4 0 6 7 3 15 -4 8 -10 15 -15 15 -4
0 -6 -7 -3 -15z"/>
<path d="M1205 2756 c-14 -10 -16 -20 -11 -47 13 -61 14 -112 1 -144 -7 -16
-11 -38 -10 -48 2 -9 -19 -58 -46 -108 -55 -100 -61 -121 -46 -162 22 -64 84
-63 166 3 46 38 53 39 57 14 4 -24 10 -27 33 -14 27 14 26 10 -5 -56 -14 -30
-28 -76 -31 -103 -4 -44 -2 -53 20 -75 44 -44 72 -34 164 59 72 72 173 128
225 124 62 -4 68 -1 68 31 0 41 -21 79 -62 111 -43 34 -83 42 -185 41 -48 -1
-83 3 -83 8 0 9 22 15 43 11 5 -1 7 4 5 11 -3 7 -14 14 -25 16 -12 2 -26 16
-34 33 -14 34 -29 22 -21 -17 2 -13 0 -24 -6 -24 -13 0 -18 16 -21 70 -4 75
-38 173 -73 213 -42 48 -98 72 -123 53z"/>
<path d="M2210 2760 c0 -5 5 -10 11 -10 5 0 7 5 4 10 -3 6 -8 10 -11 10 -2 0
-4 -4 -4 -10z"/>
<path d="M1898 2352 c-10 -2 -18 -9 -19 -15 -1 -7 -2 -24 -3 -39 -2 -15 7 -57
20 -94 16 -47 20 -73 13 -85 -13 -25 -11 -45 6 -82 29 -62 52 -92 73 -95 21
-3 20 -5 -13 -55 -36 -55 -52 -101 -38 -110 12 -8 117 29 121 42 6 17 22 13
22 -6 0 -10 21 -37 46 -60 35 -33 54 -43 79 -43 20 0 50 -11 71 -25 42 -28
105 -48 127 -39 15 5 13 19 -9 94 -18 59 -66 117 -158 193 -46 38 -46 38 -31
67 18 36 23 36 71 10 20 -12 38 -19 41 -17 5 5 -56 42 -85 51 -14 5 -26 23
-36 54 l-14 47 -1 -37 c-1 -27 -7 -40 -22 -48 -11 -7 -22 -10 -24 -8 -2 2 -17
35 -34 73 -45 99 -60 127 -86 157 -31 36 -96 75 -117 70z"/>
<path d="M639 2283 c-1 -10 -2 -22 -3 -28 -14 -80 -16 -156 -6 -175 9 -18 8
-25 -6 -41 -20 -22 -21 -88 -2 -119 7 -11 24 -20 38 -20 33 0 46 -10 55 -40
11 -36 35 -60 60 -60 25 0 75 35 75 53 0 7 17 13 43 13 24 1 68 15 105 33 75
37 82 62 28 99 -30 20 -48 24 -125 25 -65 2 -91 6 -91 15 0 6 -6 12 -14 12 -8
0 -17 22 -24 64 -12 73 -33 123 -67 161 -28 29 -64 34 -66 8z"/>
<path d="M2179 2218 c0 -13 -2 -31 -4 -40 -2 -10 0 -20 5 -23 5 -3 7 3 6 12
-2 10 0 30 5 46 4 15 4 27 -2 27 -5 0 -9 -10 -10 -22z"/>
<path d="M1162 2004 c-8 -15 21 -118 43 -155 4 -5 8 -37 9 -70 4 -70 28 -112
69 -117 15 -2 27 -9 27 -17 0 -7 8 -23 18 -34 18 -23 29 -24 170 -17 34 2 77
1 95 -3 61 -14 70 4 37 76 -21 47 -100 131 -142 152 -19 10 -28 22 -28 38 0
26 -3 27 -30 13 -15 -8 -20 -6 -25 10 -21 66 -219 167 -243 124z"/>
<path d="M460 1915 c0 -9 7 -32 16 -53 34 -80 45 -131 33 -153 -6 -12 -9 -33
-6 -47 4 -20 -1 -32 -20 -48 -25 -21 -17 -44 9 -28 7 5 31 8 54 9 37 0 42 -2
42 -23 0 -13 6 -30 14 -39 8 -8 13 -24 11 -37 -4 -21 -9 -23 -79 -21 -76 1
-111 -8 -125 -35 -4 -8 -31 -71 -59 -140 -29 -69 -67 -160 -86 -202 -19 -43
-34 -80 -34 -83 0 -6 -73 -182 -95 -230 -21 -45 -94 -222 -118 -286 -31 -83
-27 -85 140 -83 76 1 141 2 145 3 4 0 19 22 32 49 49 97 40 93 219 93 106 -1
164 -5 177 -13 11 -7 29 -37 41 -66 14 -33 30 -56 43 -61 28 -10 278 -8 294 3
13 8 10 29 -8 71 -4 11 -48 115 -95 230 -92 219 -148 355 -195 465 -15 36 -33
81 -39 100 -23 67 -77 165 -96 175 -43 22 -46 25 -34 46 6 11 24 25 40 31 16
5 34 18 39 28 8 14 16 17 42 11 18 -4 58 -7 88 -7 71 1 76 20 21 79 -30 32
-56 49 -96 62 -31 9 -62 14 -70 11 -9 -3 -15 0 -15 9 0 8 -6 15 -13 15 -8 0
-23 19 -33 42 -26 58 -59 95 -105 118 -46 24 -79 26 -79 5z m119 -927 c49
-121 59 -156 48 -167 -14 -14 -130 -14 -144 0 -9 9 -7 23 7 58 35 87 61 141
68 141 4 0 14 -15 21 -32z"/>
<path d="M1249 1472 c-8 -3 -17 -10 -21 -16 -4 -6 -8 -239 -8 -518 0 -473 1
-508 18 -516 27 -14 239 -9 254 6 9 9 12 75 14 240 0 125 2 234 3 242 2 18 34
-17 66 -71 11 -19 31 -53 45 -76 14 -23 38 -63 54 -90 57 -96 96 -151 110
-156 19 -8 39 11 73 71 15 26 30 49 33 52 3 3 12 18 20 35 8 16 31 55 50 85
20 30 45 72 55 93 22 42 52 74 61 64 4 -3 7 -115 7 -247 0 -210 2 -242 16
-249 20 -9 242 -8 258 2 13 8 16 1016 2 1038 -9 15 -200 20 -242 6 -29 -9 -78
-77 -231 -315 -53 -82 -84 -122 -95 -120 -8 2 -76 94 -151 205 -74 111 -143
210 -152 219 -13 13 -38 17 -120 19 -58 0 -111 -1 -119 -3z"/>
<path d="M2635 1472 c-11 -3 -23 -9 -27 -16 -4 -6 -8 -238 -8 -516 0 -278 4
-510 8 -515 4 -6 58 -11 135 -11 119 1 128 2 134 21 11 32 11 987 -1 1013 -5
12 -14 23 -20 23 -34 4 -204 4 -221 1z"/>
</g>
</svg>
