<svg width="360" height="360" viewBox="0 0 360 360" fill="none" xmlns="http://www.w3.org/2000/svg">
<path fill-rule="evenodd" clip-rule="evenodd" d="M191.171 78.3614L191.834 78.2773L192.188 78.3301L192.548 78.4412L192.913 78.6036L193.277 78.8109L193.641 79.0546L194.005 79.3267L194.369 79.6166L195.086 80.2207C195.16 80.2871 195.234 80.353 195.308 80.4188C195.572 80.6539 195.836 80.8883 196.083 81.1433C196.39 81.4591 196.671 81.7936 196.932 82.1477C197.253 82.583 197.525 83.0496 197.797 83.5155L197.842 83.591C197.891 83.6749 197.939 83.759 197.988 83.8432C198.145 84.117 198.303 84.3908 198.479 84.6539L198.955 85.3122C199.05 85.4285 199.146 85.5438 199.242 85.659C199.576 86.0606 199.91 86.4618 200.186 86.9079C200.406 87.2644 200.586 87.6449 200.765 88.0241C200.814 88.128 200.864 88.2317 200.913 88.3348C200.955 88.4204 200.996 88.5059 201.037 88.5914C201.23 88.99 201.423 89.3882 201.604 89.7931L201.894 90.5225C202.033 90.8904 202.157 91.2638 202.281 91.6372C202.441 92.1207 202.601 92.6043 202.794 93.0757C202.946 93.4489 203.12 93.8085 203.298 94.17L203.667 94.8994L203.984 95.6289L204.366 96.7231L204.687 97.4526C204.831 97.7388 204.999 98.0109 205.167 98.2829C205.295 98.4904 205.424 98.6979 205.541 98.9116L205.735 99.2763L206.038 100.006C206.175 100.391 206.266 100.792 206.358 101.191C206.407 101.405 206.455 101.618 206.511 101.83C206.626 102.265 206.758 102.694 206.89 103.124C206.907 103.179 206.924 103.234 206.941 103.288L207.169 104.018L207.443 104.747L208.097 106.19C208.218 106.473 208.322 106.763 208.416 107.056L208.596 107.665L209.205 107.502C209.29 107.481 209.374 107.459 209.458 107.438C209.782 107.356 210.106 107.275 210.427 107.176L210.779 107.046C211.138 106.907 211.451 106.695 211.762 106.471L212.212 106.043L212.608 105.477L213.76 105.478L213.864 105.478C214.175 105.479 214.486 105.48 214.796 105.498C215.252 105.524 215.75 105.592 216.139 105.852L216.4 106.062L216.61 106.323L216.765 106.625L216.869 106.957L216.963 107.668L216.978 108.029L216.984 108.75L216.985 110.583L216.433 110.979L216.047 111.43L215.702 112.064L215.573 112.413L215.258 113.485L214.796 114.96L215.406 115.169L215.949 115.391C216.543 115.651 217.13 115.928 217.714 116.209L218.808 116.75L219.538 117.093L220.632 117.589C220.934 117.732 221.227 117.892 221.521 118.053C221.71 118.156 221.899 118.259 222.091 118.358C222.452 118.544 222.814 118.722 223.185 118.885L224.28 119.357L225.009 119.728C225.355 119.917 225.671 120.155 225.986 120.391C226.025 120.42 226.064 120.45 226.103 120.479L226.468 120.768C226.577 120.852 226.684 120.936 226.792 121.021C227.044 121.219 227.296 121.417 227.562 121.599C227.913 121.839 228.275 122.05 228.656 122.238L229.386 122.55L230.115 122.851L230.845 123.245C231.196 123.464 231.519 123.721 231.842 123.978C231.874 124.004 231.907 124.029 231.939 124.055L233.033 124.927C233.392 125.2 233.758 125.46 234.128 125.718C234.237 125.794 234.346 125.869 234.456 125.945C234.836 126.207 235.217 126.469 235.581 126.754L236.283 127.337L236.936 127.942L237.241 128.247C237.535 128.562 237.822 128.881 238.092 129.218L238.916 130.281C239.273 130.76 239.628 131.239 239.957 131.738L240.171 132.103L240.487 132.833L240.58 133.197L240.651 133.921L240.633 134.277L240.487 134.953L240.351 135.266L239.952 135.823L239.423 136.285L239.123 136.48L238.806 136.65L238.125 136.919L237.769 137.021L237.045 137.175L236.316 137.299L236.241 137.311C235.781 137.387 235.321 137.463 234.857 137.514C234.609 137.541 234.36 137.559 234.111 137.577C233.751 137.604 233.391 137.631 233.033 137.683C232.647 137.74 232.267 137.825 231.887 137.91C231.541 137.987 231.195 138.064 230.845 138.12C230.361 138.198 229.87 138.19 229.386 138.118L228.656 137.96L228.292 137.848L227.927 137.717L227.562 137.565L226.833 137.232L226.468 137.085L226.103 136.979L225.374 136.959L225.009 137.046L224.644 137.179L223.915 137.499L223.55 137.653L222.821 137.903L222.091 138.047L221.362 138.049L220.632 137.919L219.538 137.626C219.487 137.611 219.435 137.597 219.384 137.583C218.698 137.392 218.007 137.2 217.35 136.923C216.734 136.664 216.141 136.344 215.593 135.961C215.278 135.74 214.981 135.5 214.703 135.233L213.879 134.414L213.27 133.909L212.594 133.469C212.165 133.221 211.729 132.989 211.292 132.757L211.15 132.682C211.081 132.645 211.011 132.608 210.941 132.571C210.534 132.359 210.123 132.143 209.768 131.852L209.197 131.292L208.747 130.628L208.561 130.274L208.233 129.549L207.769 128.456C207.575 127.982 207.389 127.508 207.279 127.006C207.191 126.604 207.157 126.193 207.142 125.783L207.137 125.173L206.527 125.554L205.989 125.957C205.539 126.321 205.1 126.695 204.687 127.101L203.442 128.399L202.198 129.652L201.624 130.297C201.577 130.35 201.531 130.404 201.485 130.457C201.161 130.833 200.837 131.209 200.462 131.537L199.809 132.04L198.746 132.694C198.633 132.762 198.52 132.829 198.407 132.897C197.907 133.196 197.407 133.495 196.924 133.821L195.83 134.601C195.477 134.846 195.125 135.089 194.735 135.272C194.272 135.49 193.783 135.616 193.277 135.681C192.914 135.728 192.549 135.735 192.184 135.738L191.473 135.696L191.137 135.634L190.546 135.376L190.11 134.905L189.844 134.27L189.731 133.56L189.75 132.833L189.86 132.103L189.938 131.738L190.133 131.009C190.21 130.74 190.311 130.478 190.412 130.217C190.451 130.116 190.489 130.016 190.527 129.915L190.667 129.55L190.925 128.82L191.287 127.726C191.424 127.353 191.578 126.988 191.756 126.632C191.945 126.256 192.156 125.893 192.381 125.538L193.371 124.079L194.559 122.255C194.802 121.887 195.058 121.525 195.315 121.167C195.647 120.705 195.983 120.246 196.349 119.812C196.687 119.411 197.049 119.03 197.425 118.666C197.692 118.408 197.966 118.163 198.252 117.927L198.799 117.548L199.268 117.315L199.842 117.149V116.419L199.232 116.256C199.083 116.219 198.933 116.183 198.784 116.147C198.403 116.056 198.023 115.965 197.651 115.846C197.018 115.642 196.394 115.393 195.835 115.026C195.459 114.78 195.118 114.497 194.797 114.182C194.479 113.871 194.192 113.531 193.906 113.191L193.858 113.134C193.556 112.778 193.265 112.413 192.98 112.042L192.719 111.678L192.277 110.948C192.095 110.613 191.944 110.261 191.794 109.91C191.734 109.769 191.674 109.629 191.612 109.489C191.23 108.634 190.848 107.778 190.438 106.936L189.886 105.842C189.839 105.751 189.792 105.661 189.745 105.571C189.541 105.18 189.336 104.789 189.162 104.383C188.96 103.909 188.79 103.419 188.647 102.924C188.637 102.889 188.627 102.854 188.617 102.819C188.522 102.491 188.428 102.164 188.358 101.83C188.282 101.468 188.23 101.104 188.206 100.735C188.181 100.369 188.191 100.007 188.209 99.6411L188.247 99.2763L188.309 98.9116L188.503 98.1821C188.584 97.9259 188.685 97.6774 188.787 97.4288C188.833 97.3154 188.879 97.202 188.923 97.0879L189.066 96.7232L189.189 96.3584L189.319 95.6289L189.254 94.8994L189.161 94.5347L188.925 93.8052L188.695 93.0757C188.593 92.7132 188.493 92.3503 188.414 91.9815C188.337 91.6197 188.271 91.256 188.235 90.8873C188.188 90.4022 188.186 89.9131 188.239 89.4283C188.279 89.057 188.359 88.6974 188.442 88.3341L188.633 87.6046C188.845 86.7624 189.045 85.9133 189.159 85.0514C189.207 84.6874 189.233 84.3238 189.255 83.9572C189.262 83.852 189.267 83.7468 189.272 83.6416C189.285 83.3816 189.299 83.1218 189.328 82.863C189.411 82.1233 189.577 81.3941 189.767 80.6752L189.864 80.3119L190.089 79.6017L190.41 78.9669L190.88 78.5032L191.171 78.3614ZM258.944 96.2914L259.647 96.2857L260.326 96.5265L260.648 96.7139L261.259 97.1698L261.848 97.7013L262.436 98.2918C262.948 98.8419 263.451 99.4018 263.9 100.006L264.391 100.721C264.444 100.802 264.495 100.884 264.547 100.966C264.707 101.22 264.867 101.474 265.052 101.711L265.556 102.288C265.634 102.367 265.713 102.446 265.792 102.525C265.983 102.714 266.175 102.904 266.347 103.111C266.628 103.448 266.867 103.817 267.105 104.186C267.228 104.376 267.351 104.567 267.48 104.753L268.266 105.842L268.764 106.571L269.464 107.665C269.769 108.147 270.073 108.629 270.355 109.124C270.506 109.39 270.648 109.66 270.79 109.93C271.037 110.4 271.283 110.869 271.576 111.313C271.793 111.641 272.032 111.952 272.271 112.263C272.49 112.548 272.708 112.833 272.91 113.131C273.119 113.44 273.306 113.762 273.492 114.084L273.542 114.169L273.909 114.806L274.085 115.115L274.412 115.752L275.031 117.149C275.252 117.621 275.488 118.088 275.737 118.546C275.825 118.706 275.916 118.865 276.008 119.024C276.156 119.282 276.304 119.539 276.437 119.806C276.567 120.068 276.682 120.338 276.796 120.608C276.873 120.79 276.95 120.972 277.032 121.152L277.21 121.494C277.365 121.787 277.565 122.051 277.765 122.314C277.804 122.365 277.842 122.415 277.88 122.465L278.119 122.774L278.55 123.411L278.901 124.093L279.2 124.81L279.473 125.538C279.495 125.594 279.517 125.651 279.538 125.708C279.754 126.271 279.969 126.834 280.279 127.355L280.742 128.042L281.008 128.354L281.611 128.865L282.28 129.169L282.936 129.204L283.218 129.106L283.445 128.931L283.602 128.69L283.695 128.068L283.557 127.359C283.516 127.222 283.472 127.085 283.427 126.948C283.355 126.724 283.282 126.498 283.225 126.269C283.139 125.926 283.076 125.583 283.041 125.231C283.013 124.956 283.01 124.68 283.008 124.404C283.007 124.296 283.006 124.187 283.003 124.079L282.497 123.84L282.13 123.492L281.742 122.93L281.39 122.248L280.906 121.161C280.734 120.785 280.544 120.418 280.326 120.067C280.089 119.686 279.821 119.332 279.547 118.978L278.949 118.277L278.114 117.36L277.894 117.059L277.771 116.915L277.532 116.419L278.142 116.544L278.683 116.79L279.348 117.232C279.787 117.587 280.207 117.959 280.564 118.4C280.952 118.879 281.23 119.427 281.508 119.974C281.586 120.128 281.664 120.281 281.744 120.433C282.008 120.931 282.299 121.412 282.596 121.89L283.059 122.618L283.758 123.681L284.68 124.963L285.026 125.6L285.164 125.934L285.441 126.618L285.818 127.267C285.998 127.517 286.217 127.729 286.437 127.941C286.488 127.991 286.54 128.04 286.591 128.09L287.094 128.616C287.243 128.789 287.378 128.974 287.513 129.159C287.593 129.269 287.673 129.379 287.756 129.487L287.994 129.764L288.26 130.01L288.878 130.373L289.574 130.555L289.934 130.589L290.663 130.562L291.392 130.425L292.486 130.098L293.945 129.639L294.675 129.364L295.769 128.887L296.498 128.622C296.853 128.513 297.219 128.44 297.583 128.372L298.264 128.248L298.629 128.191L298.807 128.158L299.416 128.091L299.178 128.55L299.054 128.663L298.829 128.907L298.268 129.309L297.936 129.501L297.226 129.843C296.869 129.994 296.501 130.113 296.133 130.231C296.012 130.27 295.89 130.309 295.769 130.349L295.039 130.594C294.87 130.654 294.701 130.716 294.532 130.778C293.974 130.98 293.416 131.183 292.851 131.363L291.757 131.688L291.034 131.913L290.358 132.214L290.065 132.414L289.828 132.655L289.582 133.245L289.687 133.918L290.098 134.573L290.702 135.115L291.044 135.321L291.398 135.481L291.758 135.597L292.486 135.743L293.58 135.905L296.134 136.329C296.3 136.357 296.466 136.384 296.632 136.411C297.075 136.484 297.518 136.556 297.957 136.644L299.781 137.041C300.126 137.11 300.475 137.156 300.823 137.201C300.962 137.219 301.101 137.238 301.24 137.257C301.889 137.349 302.534 137.457 303.18 137.565C303.627 137.64 304.075 137.715 304.523 137.784L305.252 137.891C305.338 137.903 305.423 137.914 305.508 137.925C305.91 137.978 306.313 138.031 306.711 138.107C307.336 138.227 307.947 138.399 308.559 138.57C308.915 138.67 309.271 138.77 309.629 138.86L311.453 139.275C311.821 139.368 312.185 139.471 312.547 139.582L313.641 139.924L315.1 140.301L315.83 140.505C316.567 140.725 317.294 140.982 318.018 141.24L319.477 141.763L320.571 142.101C321.056 142.244 321.541 142.382 322.03 142.509L323.489 142.884L324.219 143.109L324.948 143.342L326.042 143.704L326.772 144.005C327.262 144.224 327.74 144.473 328.208 144.734L328.823 145.163L329.199 145.697V146.332L329.051 146.661L328.823 146.981L328.534 147.278L327.859 147.785C327.209 148.2 326.469 148.425 325.738 148.648L325.678 148.666L324.219 149.092L323.489 149.299C323.45 149.31 323.411 149.322 323.372 149.334C322.918 149.47 322.463 149.606 322.037 149.818L321.349 150.232L320.757 150.787C320.408 151.191 320.182 151.673 319.957 152.152L319.951 152.165L319.787 152.529L319.442 153.258C319.142 153.875 318.827 154.484 318.493 155.082C318.285 155.454 318.053 155.813 317.822 156.17C317.591 156.528 317.344 156.882 317.07 157.208C316.593 157.775 316.038 158.263 315.459 158.723C314.681 159.341 313.859 159.917 312.912 160.242C312.438 160.404 311.946 160.479 311.453 160.551L310.359 160.707L309.629 160.814L309.264 160.854L308.535 160.889C307.922 160.889 307.314 160.804 306.711 160.7C306.091 160.594 305.464 160.479 304.887 160.216L304.158 159.812L303.428 159.288L303.064 158.999L302.344 158.414L301.663 157.899L301.12 157.552L300.511 157.27L300.329 157.766L300.257 157.91L300.008 158.485L299.772 159.128L299.591 159.829C299.528 160.127 299.49 160.428 299.453 160.729C299.445 160.792 299.437 160.855 299.429 160.918L299.326 161.647L299.141 162.376L299.012 162.74L298.695 163.455C298.531 163.798 298.322 164.136 298.071 164.423L297.806 164.698L297.189 165.167C296.864 165.367 296.532 165.548 296.198 165.731L296.132 165.766L295.039 166.35L293.58 167.095L292.121 167.871L290.663 168.632L289.933 169.029L289.568 169.211L289.204 169.365L288.474 169.57L287.745 169.65L287.38 169.659C286.89 169.654 286.405 169.633 285.921 169.553C285.564 169.495 285.217 169.403 284.868 169.311L284.827 169.3L284.097 169.075L283.368 168.791L282.638 168.391L282.273 168.149L281.544 167.628C281.427 167.546 281.311 167.464 281.194 167.382C280.822 167.121 280.45 166.861 280.085 166.589L279.356 165.991L278.632 165.349L278.278 165.032L277.615 164.411L277.324 164.096L276.847 163.438L276.496 162.736L276.185 162.011C276.14 161.906 276.094 161.801 276.048 161.696C275.832 161.205 275.616 160.713 275.494 160.188C275.356 159.59 275.351 158.975 275.346 158.364L275.359 157.27L275.421 156.541L275.574 155.811L275.819 155.082L275.955 154.718L276.173 153.997L276.23 153.639L276.225 152.951L276.214 152.774L276.073 152.164C276.002 152.275 275.932 152.388 275.861 152.501C275.69 152.775 275.518 153.052 275.334 153.317C275.085 153.676 274.822 154.023 274.536 154.353C274.002 154.968 273.412 155.534 272.79 156.058C272.371 156.411 271.929 156.735 271.488 157.058C271.313 157.186 271.139 157.314 270.967 157.443L269.872 158.273L269.828 158.305C269.493 158.548 269.152 158.797 268.778 158.978L268.049 159.251L267.684 159.308H267.32L266.956 159.251L266.597 159.139L265.914 158.768L265.351 158.239L264.987 157.601L264.836 156.9L264.856 156.175L264.924 155.811L265.032 155.447L265.18 155.082L265.57 154.352C265.618 154.27 265.667 154.188 265.716 154.106C265.881 153.827 266.046 153.549 266.191 153.258C266.343 152.954 266.467 152.641 266.591 152.327C266.66 152.15 266.73 151.974 266.805 151.799C266.965 151.425 267.145 151.064 267.338 150.705L267.967 149.611C268.31 149.008 268.649 148.404 268.97 147.789C269.148 147.446 269.326 147.103 269.487 146.751L269.629 146.386L269.708 146.208L269.872 145.599L269.329 145.943L269.186 146.057L268.875 146.272L268.606 146.463L267.985 146.844L267.305 147.157L266.949 147.282L266.224 147.479C265.154 147.734 264.039 147.837 262.942 147.724C262.198 147.646 261.462 147.471 260.754 147.231C260.254 147.062 259.757 146.867 259.296 146.609C258.915 146.397 258.563 146.149 258.233 145.863C257.651 145.357 257.171 144.746 256.701 144.139L256.155 143.41C255.812 142.935 255.476 142.458 255.182 141.951C254.979 141.6 254.802 141.236 254.626 140.871C254.505 140.622 254.385 140.373 254.255 140.127C254.059 139.755 253.852 139.391 253.631 139.033C253.546 138.897 253.461 138.762 253.375 138.627C253.083 138.167 252.791 137.708 252.568 137.209C252.409 136.856 252.286 136.49 252.189 136.115C252.114 135.827 252.063 135.534 252.011 135.241C251.998 135.168 251.985 135.094 251.972 135.021L251.85 134.292L251.791 133.927L251.699 133.197L251.673 132.833V132.103C251.693 131.638 251.764 131.179 251.835 130.721C251.857 130.574 251.88 130.427 251.901 130.279C251.927 130.094 251.952 129.908 251.976 129.722C252.031 129.298 252.086 128.875 252.168 128.456C252.262 127.972 252.385 127.498 252.541 127.029L252.676 126.695L252.84 126.378L253.041 126.077L253.561 125.535L254.208 125.089L254.56 124.91L254.92 124.764L255.282 124.651L256.003 124.513L256.36 124.478L257.226 124.445L257.836 124.444L257.554 123.875L257.215 123.428L256.722 122.932L255.91 122.235L255.604 122.004L255.461 121.88L254.918 121.526L254.83 120.916L254.663 120.373L254.359 119.693L253.964 118.972C253.913 118.882 253.862 118.793 253.811 118.704C253.52 118.196 253.229 117.688 252.994 117.149C252.788 116.677 252.619 116.184 252.477 115.69L252.464 115.645C252.298 115.061 252.13 114.476 252.1 113.866L252.12 113.137L252.165 112.772L252.226 112.407L252.367 111.678L252.526 110.948L252.734 110.219L253.033 109.489C253.186 109.164 253.367 108.854 253.549 108.545C253.718 108.256 253.888 107.967 254.034 107.665L254.349 106.936L254.718 105.842C254.846 105.469 254.989 105.108 255.148 104.747L255.494 104.018L255.546 103.908C255.702 103.582 255.857 103.256 255.998 102.924C256.2 102.446 256.384 101.962 256.534 101.465C256.642 101.104 256.728 100.738 256.808 100.371L256.952 99.6411L257.157 98.5476L257.372 97.8245L257.742 97.1434L258.284 96.5942L258.604 96.4068L258.944 96.2914ZM210.63 101.508L210.784 100.735L211.212 101.131L211.316 101.289L211.549 101.582L211.93 102.214L212.235 102.904L212.335 103.536L212.227 103.987L211.878 104.383L211.557 103.809L211.28 103.335L210.957 102.762L210.813 102.462L210.63 101.855L210.63 101.508ZM218.311 111.454L218.079 110.948L218.671 111.006L219.143 111.167L219.383 111.314L219.778 111.735L219.944 112.185L219.903 112.772L219.458 112.478L219.063 112.193L218.624 111.82L218.426 111.567L218.311 111.454ZM139.665 111.34L140.39 111.232L141.118 111.334L141.483 111.447L141.848 111.585L142.942 112.019L144.036 112.408L144.401 112.534L145.13 112.811L145.494 112.976L146.211 113.392L146.891 113.948L147.514 114.612L148.089 115.326L148.366 115.69L149.189 116.784L150.003 117.878C150.041 117.93 150.078 117.982 150.115 118.034C150.338 118.343 150.56 118.651 150.766 118.972C150.993 119.326 151.205 119.689 151.391 120.067C151.567 120.422 151.717 120.786 151.843 121.161C151.944 121.458 152.026 121.762 152.108 122.065C152.159 122.251 152.209 122.436 152.263 122.62L152.717 124.079L153.019 125.173L153.31 126.267L153.52 126.997C153.547 127.092 153.575 127.188 153.602 127.284C153.783 127.912 153.964 128.541 154.08 129.185C154.167 129.668 154.216 130.154 154.235 130.644C154.242 130.833 154.247 131.022 154.251 131.211C154.261 131.63 154.271 132.049 154.311 132.468L154.552 134.292L154.676 136.115C154.709 136.445 154.76 136.773 154.811 137.101C154.833 137.239 154.854 137.377 154.875 137.516L154.917 137.881L154.943 138.059L154.979 138.668L155.465 138.716L155.861 138.727L156.269 138.716L156.802 138.668L156.767 138.059L156.741 137.881L156.698 137.516L156.542 136.478L156.47 135.751C156.446 135.393 156.442 135.033 156.439 134.674V134.673L156.438 133.197L157.026 133.436L157.489 133.784L157.958 134.346L158.147 134.678L158.419 135.388C158.495 135.634 158.54 135.889 158.585 136.143C158.605 136.253 158.624 136.363 158.646 136.471L158.727 136.818L158.841 137.141L159.211 137.657L159.774 137.929L160.106 137.98L160.457 137.996L161.174 138.019L161.528 138.067L162.19 138.307L162.733 138.725L163.085 139.176L163.368 139.763L162.758 139.976L162.215 140.069C161.909 140.1 161.603 140.112 161.297 140.125C161.136 140.132 160.976 140.139 160.816 140.148L160.106 140.243L159.472 140.494L159.001 140.914L158.841 141.217L158.626 141.951H161.544C161.649 141.951 161.755 141.951 161.86 141.951C162.363 141.952 162.866 141.952 163.368 141.918C163.735 141.893 164.097 141.847 164.462 141.797L165.556 141.648C166.042 141.602 166.528 141.592 167.015 141.588L168.474 141.586L169.933 141.592L170.662 141.619L171.392 141.69L172.851 141.895L173.945 142.008C174.435 142.073 174.921 142.146 175.404 142.25C175.899 142.356 176.39 142.481 176.862 142.664L177.587 142.986L177.943 143.178L178.625 143.627L178.948 143.879L179.885 144.654C180.214 144.904 180.558 145.13 180.902 145.355C181.016 145.43 181.131 145.505 181.244 145.581L181.6 145.829L182.296 146.406C182.625 146.716 182.936 147.058 183.197 147.428C183.594 147.992 183.936 148.59 184.278 149.189L184.311 149.246C184.356 149.325 184.402 149.403 184.447 149.482C184.808 150.108 185.172 150.74 185.38 151.434L185.539 152.164L185.601 152.893L185.608 153.622L185.563 154.347L185.501 154.701L185.242 155.363L185.032 155.653L184.469 156.11L184.137 156.27L183.786 156.383L183.063 156.501L182.334 156.53L181.605 156.508L180.875 156.437L180.146 156.331C180.114 156.326 180.082 156.322 180.05 156.318C179.718 156.273 179.387 156.228 179.052 156.214C178.437 156.188 177.829 156.235 177.228 156.369C176.72 156.482 176.23 156.66 175.741 156.837C175.629 156.878 175.517 156.918 175.405 156.958L174.324 157.351L173.978 157.498L173.32 157.866L172.696 158.324L172.059 158.804L171.378 159.247L170.661 159.649L169.933 160.014C169.576 160.174 169.217 160.313 168.84 160.418L168.115 160.596L167.76 160.695L167.418 160.818L166.789 161.188C166.425 161.47 166.157 161.84 165.89 162.209C165.849 162.266 165.808 162.322 165.766 162.379L165.27 163.046L164.707 163.681C164.435 163.966 164.143 164.233 163.852 164.499C163.807 164.54 163.763 164.581 163.718 164.621L162.637 165.602L161.91 166.22C161.728 166.371 161.543 166.518 161.358 166.665C160.96 166.981 160.561 167.297 160.196 167.653C159.89 167.95 159.606 168.266 159.346 168.605C159.215 168.776 159.09 168.951 158.965 169.127C158.772 169.399 158.578 169.671 158.362 169.926C158.096 170.239 157.806 170.517 157.485 170.774C157.188 171.01 156.865 171.21 156.542 171.409C156.507 171.431 156.471 171.453 156.435 171.475L155.708 171.902C155.667 171.925 155.626 171.949 155.586 171.972C154.935 172.345 154.272 172.725 153.52 172.838L152.79 172.866L152.425 172.823L152.061 172.749L151.331 172.511L150.966 172.353L150.238 171.975L149.515 171.526L148.831 170.992L148.264 170.363L148.044 170.021L147.871 169.666L147.738 169.305L147.634 168.941L147.481 168.213C147.375 167.61 147.33 167 147.33 166.389C147.33 166.024 147.341 165.657 147.381 165.295L147.623 163.471L147.76 162.012L147.915 161.282C148.013 160.929 148.152 160.59 148.291 160.251L148.316 160.188L148.774 159.094C148.856 158.893 148.938 158.691 149.019 158.49C149.284 157.833 149.549 157.177 149.86 156.541L150.433 155.447L150.994 154.352C151.173 153.991 151.349 153.63 151.511 153.26L151.646 152.903L151.804 152.222L151.806 151.857L151.696 151.07L151.099 151.67L150.803 151.927L150.196 152.328L149.858 152.497L149.158 152.74L148.471 152.854L148.294 152.876L147.684 152.893V148.516L147.141 148.911L146.997 149.064L146.686 149.347L146.418 149.621L145.797 150.196L145.468 150.457C145.223 150.643 144.962 150.805 144.701 150.967C144.512 151.085 144.323 151.202 144.14 151.329C143.813 151.555 143.507 151.802 143.203 152.057L142.545 152.634L141.496 153.569C141.073 153.941 140.645 154.317 140.179 154.635L139.556 155.014L139.233 155.174C138.828 155.354 138.418 155.521 138.008 155.689C137.95 155.712 137.892 155.736 137.834 155.759C137.738 155.799 137.642 155.839 137.545 155.879C137.162 156.039 136.777 156.199 136.377 156.308C136.018 156.405 135.655 156.463 135.283 156.469C134.661 156.479 134.044 156.339 133.459 156.136C132.693 155.871 131.95 155.489 131.348 154.938C130.827 154.462 130.439 153.88 130.116 153.257C129.933 152.903 129.788 152.536 129.648 152.164L129.435 151.434L129.314 150.705L129.296 150.34L129.325 149.611L129.358 149.246L129.423 148.516C129.426 148.476 129.43 148.435 129.433 148.394C129.473 147.943 129.513 147.493 129.65 147.057C129.808 146.559 130.066 146.11 130.325 145.66C130.406 145.518 130.488 145.377 130.566 145.234L130.953 144.504C131.004 144.402 131.054 144.3 131.105 144.197C131.297 143.808 131.489 143.419 131.711 143.045C131.896 142.733 132.104 142.434 132.311 142.135C132.598 141.721 132.885 141.306 133.115 140.857C133.285 140.524 133.411 140.174 133.537 139.823C133.633 139.557 133.729 139.291 133.844 139.033C134.023 138.628 134.237 138.241 134.451 137.854C134.503 137.761 134.554 137.668 134.605 137.574L135.184 136.48L135.714 135.388L136.08 134.678L136.501 134.044L136.914 133.593L137.471 133.197L137.257 132.588L137.165 132.045C137.112 131.458 137.104 130.864 137.183 130.279C137.254 129.756 137.402 129.252 137.55 128.748C137.578 128.651 137.607 128.553 137.635 128.456C137.669 128.336 137.703 128.215 137.737 128.095C137.84 127.727 137.943 127.358 138.069 126.997C138.154 126.756 138.251 126.52 138.348 126.284C138.498 125.92 138.648 125.555 138.751 125.173C138.869 124.736 138.921 124.285 138.973 123.836C138.992 123.673 139.011 123.511 139.033 123.349C139.055 123.182 139.08 123.016 139.105 122.849C139.172 122.41 139.238 121.97 139.257 121.526C139.272 121.16 139.268 120.795 139.225 120.431C139.181 120.058 139.099 119.695 138.985 119.337C138.857 118.935 138.68 118.552 138.504 118.169C138.349 117.834 138.195 117.498 138.072 117.149C137.865 116.557 137.74 115.942 137.632 115.325L137.539 114.596L137.525 113.872L137.631 113.175L137.742 112.849L137.901 112.55L138.107 112.275L138.649 111.813L138.97 111.625L139.311 111.462L139.665 111.34ZM194.04 143.818L194.741 143.711L195.466 143.872L195.83 144.046L196.194 144.265L196.924 144.766L197.653 145.252C198.01 145.473 198.378 145.672 198.748 145.869L199.112 146.057L199.171 146.089C199.649 146.346 200.128 146.603 200.566 146.925C201.061 147.289 201.506 147.706 201.912 148.167C202.225 148.523 202.502 148.904 202.78 149.286C202.859 149.394 202.938 149.502 203.017 149.609L203.279 149.97L203.817 150.672L204.381 151.33L205.246 152.268L205.51 152.591L205.966 153.272C206.146 153.576 206.295 153.898 206.443 154.219C206.463 154.264 206.484 154.308 206.505 154.353L207.006 155.447C207.11 155.672 207.219 155.896 207.327 156.12C207.569 156.619 207.81 157.119 208.014 157.635L208.399 158.729L208.686 159.459C208.818 159.757 208.972 160.044 209.126 160.331C209.166 160.405 209.205 160.479 209.245 160.553L209.292 160.642C209.468 160.974 209.643 161.304 209.799 161.647C210 162.092 210.164 162.549 210.328 163.008L210.363 163.106L210.637 163.836L210.971 164.565L211.364 165.295L211.407 165.372C211.658 165.827 211.908 166.281 212.143 166.744L212.48 167.425L212.644 167.79L212.732 167.967L212.973 168.577L213.582 168.055L214.125 167.674L214.798 167.264L215.141 167.055L215.471 166.826L215.769 166.573L216.213 165.976L216.4 165.288L216.411 164.928L216.352 164.2L216.288 163.471L216.257 162.377C216.254 162.154 216.254 161.931 216.254 161.709C216.253 161.08 216.253 160.451 216.193 159.823C216.168 159.553 216.128 159.283 216.089 159.014C216.023 158.557 215.956 158.099 215.956 157.635C215.956 157.17 216.023 156.711 216.09 156.253C216.129 155.985 216.168 155.717 216.193 155.447C216.261 154.742 216.258 154.032 216.256 153.324C216.256 153.181 216.255 153.037 216.255 152.893L216.985 153.02L217.169 153.044L217.714 153.258C217.673 153.37 217.631 153.482 217.588 153.593C217.314 154.322 217.04 155.051 216.868 155.812C216.786 156.171 216.716 156.538 216.683 156.906C216.629 157.513 216.62 158.12 216.621 158.729L216.636 159.823L216.698 160.553L216.851 161.282L217.097 162.012L217.369 162.741L217.587 163.471C217.669 163.793 217.726 164.121 217.783 164.449C217.811 164.609 217.839 164.77 217.87 164.93C217.942 165.298 218.023 165.661 218.119 166.023L218.234 166.387L218.554 167.097L218.769 167.43L219.299 168.007L219.607 168.235L220.282 168.571L220.998 168.804C221.075 168.827 221.153 168.849 221.23 168.872C221.515 168.955 221.8 169.038 222.077 169.146L222.759 169.446L224.014 170.125L224.96 170.558L225.27 170.723L225.859 171.135L226.405 171.637L226.656 171.901L227.085 172.411L227.262 172.693L227.359 172.829L227.562 173.319L226.967 173.116L226.472 172.842L225.885 172.428L225.275 171.972L224.961 171.754L224.014 171.172L223.395 170.833L222.759 170.566L222.425 170.461L222.085 170.367L221.427 170.146L220.914 169.824L220.761 169.575L220.657 169.463L220.632 168.942L220.126 169.181L219.755 169.529L219.353 170.09L218.979 170.773L218.66 171.494L218.4 172.208L218.143 172.871L217.825 173.414L217.484 173.766L216.985 174.048L217.589 174.622L218.713 175.657L219.965 176.825C220.658 177.441 221.363 178.049 222.091 178.625C222.566 178.999 223.054 179.352 223.549 179.7C223.614 179.746 223.68 179.792 223.746 179.838C224.159 180.127 224.57 180.415 224.947 180.751C225.327 181.091 225.665 181.47 226.003 181.85C226.071 181.926 226.139 182.002 226.207 182.078L226.866 182.803L227.567 183.532L228.642 184.624C228.979 184.973 229.307 185.327 229.631 185.687C229.996 186.093 230.347 186.519 230.656 186.969C230.964 187.417 231.218 187.897 231.471 188.377C231.519 188.466 231.566 188.555 231.613 188.644L232.19 189.732L232.542 190.462L232.833 191.191C232.981 191.602 233.095 192.023 233.209 192.444C233.294 192.757 233.378 193.071 233.477 193.38C233.595 193.75 233.732 194.111 233.87 194.474C233.898 194.547 233.926 194.619 233.954 194.692C234.066 194.981 234.178 195.27 234.267 195.568C234.374 195.927 234.447 196.293 234.52 196.659C234.568 196.901 234.616 197.143 234.674 197.383C234.797 197.889 234.956 198.384 235.114 198.88C235.15 198.992 235.186 199.104 235.222 199.216L234.612 199.766L234.435 199.882L234.069 200.134L233.389 200.402C233.033 200.49 232.665 200.47 232.304 200.438L231.574 200.336L230.845 200.206C230.353 200.105 229.867 199.977 229.386 199.832C229.018 199.722 228.651 199.605 228.292 199.467C227.667 199.228 227.065 198.934 226.468 198.634C226.1 198.449 225.733 198.263 225.374 198.06C224.883 197.783 224.399 197.487 223.929 197.175L223.247 196.704L222.925 196.455L222.301 195.92L221.664 195.371L221.33 195.118L220.649 194.739L220.02 194.632L219.727 194.74L219.173 195.203C219.089 195.203 219.004 195.203 218.92 195.203C218.512 195.202 218.106 195.201 217.698 195.182L216.983 195.093L216.255 194.866L215.891 194.696C215.5 194.488 215.119 194.264 214.737 194.04C214.637 193.981 214.537 193.923 214.437 193.864C214.347 193.811 214.256 193.759 214.166 193.707C213.687 193.433 213.209 193.159 212.801 192.783C212.509 192.514 212.271 192.203 212.033 191.888C211.95 191.778 211.87 191.665 211.79 191.553C211.631 191.33 211.473 191.107 211.291 190.901L210.708 190.314L210.383 190.046L209.706 189.516L209.378 189.231L209.076 188.927L208.606 188.258L208.347 187.543L208.285 187.181L208.238 186.466L208.232 185.778L208.231 184.991L207.657 185.387L207.504 185.542L207.183 185.831L206.911 186.115L206.302 186.721C205.994 187.01 205.655 187.251 205.299 187.475L204.582 187.866L203.854 188.21L203.125 188.491L202.76 188.605L201.666 188.909L199.842 189.461L199.112 189.646L198.748 189.725L198.385 189.796L197.675 189.883L197.04 189.815L196.576 189.498L196.435 189.246L196.348 188.617L196.493 187.906C196.588 187.623 196.703 187.348 196.819 187.073C196.855 186.987 196.891 186.901 196.927 186.814L197.201 186.085C197.281 185.852 197.351 185.616 197.421 185.38C197.57 184.878 197.718 184.378 197.963 183.911L198.384 183.229L198.885 182.592C198.936 182.53 198.988 182.468 199.039 182.406C199.247 182.157 199.454 181.909 199.644 181.646C199.875 181.327 200.083 180.992 200.291 180.657C200.453 180.397 200.615 180.137 200.788 179.884L202.074 178.119L202.431 177.576L202.76 176.966C202.653 176.964 202.547 176.963 202.44 176.962C202.162 176.959 201.885 176.956 201.607 176.934L200.928 176.855L200.576 176.79L200.222 176.702L199.882 176.59L199.271 176.26L198.806 175.763L198.634 175.46C198.531 175.261 198.458 175.049 198.384 174.838C198.342 174.716 198.299 174.593 198.251 174.473L197.984 173.838C197.825 173.517 197.662 173.2 197.477 172.892L197.043 172.21L196.516 171.494C196.432 171.384 196.347 171.275 196.262 171.166C196.067 170.916 195.872 170.666 195.697 170.401C195.465 170.05 195.26 169.691 195.09 169.307C194.881 168.836 194.74 168.343 194.604 167.848C194.473 167.366 194.359 166.879 194.263 166.389L194.208 166.024L194.178 165.659C194.151 165.325 194.187 164.987 194.222 164.654C194.226 164.624 194.229 164.595 194.232 164.565C194.282 164.082 194.361 163.6 194.47 163.128L194.577 162.796L194.897 162.234L195.278 161.886L195.83 161.647L195.628 161.037L195.535 160.86L195.368 160.495L195.194 160.172L194.829 159.457L194.542 158.729C194.432 158.393 194.363 158.045 194.295 157.698C194.266 157.555 194.238 157.412 194.207 157.27C194.099 156.776 193.971 156.29 193.807 155.811C193.714 155.538 193.606 155.271 193.499 155.003C193.46 154.908 193.422 154.813 193.384 154.717C193.145 154.112 192.911 153.506 192.691 152.893C192.52 152.416 192.362 151.936 192.277 151.434C192.197 150.959 192.191 150.477 192.185 149.997L192.184 149.975L192.168 148.516L192.126 147.787L192.094 147.422C192.09 147.367 192.086 147.312 192.081 147.256C192.058 146.948 192.034 146.636 192.074 146.329L192.248 145.614L192.606 144.947L193.106 144.379L193.396 144.149L193.709 143.958L194.04 143.818ZM94.9402 148.169L95.5635 147.952L96.2559 147.996L96.6072 148.107L96.952 148.268L97.2861 148.473L97.6045 148.71L98.1993 149.248L98.7507 149.802L98.8102 149.864C99.1322 150.199 99.4536 150.533 99.7481 150.892C99.9837 151.18 100.201 151.482 100.419 151.783L100.455 151.833C100.955 152.526 101.454 153.227 101.847 153.988C102.061 154.402 102.232 154.836 102.404 155.27C102.427 155.329 102.45 155.388 102.474 155.447L102.769 156.176C102.824 156.312 102.881 156.447 102.938 156.582C103.084 156.93 103.231 157.278 103.353 157.635C103.518 158.117 103.666 158.604 103.806 159.094L103.822 159.151C103.92 159.495 104.019 159.839 104.092 160.188L104.218 160.918L104.336 162.012L104.542 163.471L104.663 164.565L104.747 165.294L104.947 166.695L104.993 167.238L105.009 167.848L105.617 167.977L105.788 168.028L106.145 168.125L107.562 168.577L107.448 169.122L107.396 169.307L107.197 170.036L107.807 170.144L108.35 170.216L109.03 170.236C109.338 170.229 109.644 170.192 109.949 170.155C110.126 170.134 110.303 170.112 110.48 170.097C110.845 170.065 111.209 170.051 111.574 170.042L112.669 170.036H114.128L115.222 170.038L115.224 170.038C115.588 170.041 115.953 170.044 116.316 170.069C116.683 170.094 117.046 170.14 117.41 170.191L118.504 170.339C118.817 170.369 119.129 170.382 119.443 170.395C119.495 170.397 119.547 170.399 119.599 170.401C119.666 170.404 119.733 170.406 119.801 170.409C120.099 170.42 120.397 170.431 120.693 170.469L121.422 170.594L121.787 170.689C122.159 170.805 122.523 170.932 122.88 171.087L123.597 171.431L124.278 171.843L124.601 172.077C124.952 172.356 125.295 172.648 125.636 172.94C125.706 172.999 125.776 173.059 125.846 173.118L126.46 173.634L126.74 173.901L127.192 174.489L127.45 175.158L127.514 175.874L127.481 176.235L127.296 176.946L127.142 177.283L126.946 177.595L126.427 178.118L126.116 178.326L125.779 178.504L124.704 178.976L123.976 179.328C123.836 179.397 123.697 179.468 123.559 179.539C123.217 179.715 122.876 179.891 122.517 180.028L121.787 180.287C121.714 180.311 121.641 180.335 121.568 180.359C121.149 180.495 120.73 180.631 120.328 180.815L119.599 181.195C119.462 181.275 119.326 181.358 119.19 181.441C118.847 181.65 118.503 181.859 118.14 182.029L117.41 182.318L116.316 182.638C116.21 182.669 116.103 182.701 115.997 182.732C115.62 182.845 115.243 182.957 114.857 183.029L114.128 183.122L113.764 183.131L113.043 183.059L112.685 182.963L111.997 182.645L111.819 182.557L111.21 182.073L110.867 183.225L110.752 183.548L110.608 183.906L110.22 184.627L109.7 185.35L109.408 185.704L108.805 186.366L108.188 186.913L107.529 187.307L107.183 187.453L106.467 187.686C105.877 187.858 105.263 188.002 104.644 187.984L103.915 187.897L103.55 187.803L103.186 187.679L102.822 187.524L102.108 187.126L101.766 186.886L101.155 186.33C100.896 186.04 100.665 185.705 100.524 185.341L100.289 184.624L100.129 183.896L100.001 183.168L99.8813 182.443L99.8008 182.088L99.5294 181.422L99.0571 180.852L98.4223 180.416L98.0719 180.253L97.7121 180.122L97.3488 180.028L96.62 179.923L95.892 179.889L95.1753 179.864L94.4943 179.784C94.054 179.71 93.6387 179.501 93.2711 179.255L92.719 178.819L92.4668 178.566L92.0436 177.984L91.8812 177.658L91.6575 176.961L91.5464 176.236L91.4531 175.143L91.359 174.413C91.3489 174.343 91.3386 174.273 91.3282 174.203C91.2668 173.789 91.2053 173.374 91.1959 172.954L91.218 172.225L91.3255 171.495L91.525 170.766L91.8556 170.038L92.0835 169.679L92.6513 168.996L92.9776 168.693L93.6458 168.21L93.8217 168.086L94.4315 167.848L94.1295 167.238L93.6921 166.372C93.6056 166.213 93.5158 166.054 93.4259 165.896C93.2459 165.578 93.0656 165.26 92.9106 164.93C92.6907 164.462 92.5263 163.977 92.4191 163.471L92.308 162.741L92.2816 162.377L92.2716 162.012L92.3065 161.282L92.3471 160.918L92.5053 159.823L92.6784 158.364L92.8244 157.635L92.922 157.27C92.9429 157.194 92.9643 157.117 92.9857 157.041C93.0658 156.755 93.1458 156.469 93.2005 156.176L93.2996 155.447L93.3501 154.352C93.368 153.985 93.3983 153.623 93.4413 153.258L93.598 152.164L93.675 151.434L93.7348 150.705L93.846 149.978L94.0704 149.267L94.4351 148.633L94.6695 148.373L94.9402 148.169ZM108.656 167.483L109.021 167.118L109.39 167.45L109.456 167.61L109.751 168.213L109.148 167.918L108.988 167.852L108.656 167.483ZM136.749 170.714L137.472 170.702L138.201 170.754L138.93 170.837L139.66 170.984L140.024 171.086L140.754 171.313L141.482 171.544L141.842 171.666C142.2 171.803 142.554 171.945 142.88 172.151L143.203 172.364C143.308 172.438 143.412 172.514 143.516 172.59C143.822 172.814 144.127 173.038 144.463 173.216L145.145 173.514L145.862 173.768L146.226 173.906L146.954 174.251C147.461 174.523 147.932 174.856 148.401 175.187L148.413 175.195L149.508 175.98C149.585 176.035 149.662 176.091 149.739 176.147C150.157 176.448 150.576 176.749 150.966 177.085L151.331 177.398C151.827 177.848 152.312 178.309 152.776 178.791C153.52 179.565 154.231 180.375 154.727 181.334L155.03 182.014L155.147 182.38L155.209 182.557L155.343 183.167L155.938 183.042L156.434 182.799L157.021 182.375L157.323 182.136L157.949 181.724L158.582 181.518L158.938 181.528L159.72 181.708L159.481 182.318L159.399 182.495L159.128 183.182L159.027 183.535L158.988 184.223L159.078 184.549L159.487 185.133L159.78 185.39L160.457 185.859L161.18 186.294C161.357 186.396 161.535 186.497 161.713 186.598C162.146 186.844 162.578 187.09 163.003 187.349C163.512 187.659 163.993 188.011 164.461 188.379L165.186 188.975L165.189 188.978C165.645 189.37 166.101 189.761 166.514 190.2C166.758 190.46 166.982 190.739 167.205 191.017C167.424 191.29 167.643 191.562 167.881 191.818C168.146 192.101 168.429 192.363 168.713 192.625C168.875 192.775 169.036 192.924 169.194 193.077C169.647 193.515 170.08 193.971 170.46 194.475C170.721 194.823 170.948 195.19 171.161 195.568L171.735 196.662L172.131 197.392C172.18 197.48 172.229 197.567 172.278 197.655C172.499 198.05 172.72 198.445 172.921 198.851C173.098 199.21 173.265 199.574 173.415 199.945L173.819 201.039L174.059 201.769L174.256 202.497L174.314 202.861L174.328 203.221L174.285 203.571L174.005 204.206L173.772 204.465L173.492 204.671L172.835 204.903L172.481 204.935L171.756 204.89L171.392 204.84L170.663 204.747L169.204 204.625L168.474 204.517C168.196 204.468 167.92 204.404 167.645 204.341C167.557 204.32 167.468 204.3 167.38 204.28L166.65 204.127C166.289 204.057 165.923 204.017 165.556 203.99C165.226 203.966 164.895 203.962 164.564 203.959C164.408 203.957 164.253 203.956 164.097 203.952C163.731 203.943 163.367 203.93 163.003 203.895C162.732 203.87 162.464 203.83 162.195 203.79C162.1 203.776 162.004 203.762 161.909 203.748L161.179 203.669L160.45 203.674L159.72 203.788L159.356 203.885L158.626 204.145L157.532 204.62L157.167 204.759L156.438 204.952C156.077 205.02 155.709 205.033 155.343 205.044L154.249 205.051C154.189 205.051 154.129 205.05 154.068 205.05C153.398 205.049 152.722 205.048 152.061 204.932C151.432 204.821 150.814 204.626 150.238 204.351L149.515 203.959L149.163 203.721L148.515 203.149L148.236 202.824L147.8 202.128L147.645 201.767L147.528 201.405L147.388 200.684L147.333 200.003L147.319 198.851L146.709 198.965L146.166 199.061C145.701 199.124 145.236 199.177 144.765 199.123C143.702 199.001 142.716 198.468 141.999 197.678C141.539 197.172 141.227 196.556 140.919 195.951L140.91 195.932C140.61 195.341 140.323 194.74 140.113 194.109C139.956 193.635 139.838 193.143 139.756 192.65C139.656 192.046 139.571 191.44 139.555 190.826C139.545 190.421 139.571 190.017 139.598 189.612C139.611 189.409 139.624 189.206 139.632 189.003C139.653 188.516 139.657 188.031 139.645 187.544L139.596 186.814L139.49 186.085C139.4 185.59 139.268 185.106 139.12 184.626L138.841 183.896L138.672 183.532C138.617 183.419 138.561 183.306 138.505 183.193C138.38 182.944 138.256 182.694 138.146 182.437C137.995 182.082 137.873 181.717 137.751 181.352C137.669 181.105 137.586 180.858 137.495 180.614C137.312 180.129 137.102 179.656 136.891 179.184C136.833 179.052 136.774 178.921 136.717 178.79C136.699 178.749 136.681 178.709 136.663 178.668C136.521 178.347 136.378 178.025 136.254 177.696L136.002 176.966L135.616 175.507L135.402 174.778L135.179 174.048L135.02 173.32L134.986 172.956L134.991 172.595L135.04 172.241L135.293 171.584L135.503 171.303L136.066 170.893L136.398 170.776L136.749 170.714ZM80.4153 177.462L80.9361 176.966L81.5459 177.196L81.7233 177.272L82.4114 177.543L83.1267 177.812C83.2456 177.856 83.3646 177.9 83.4837 177.944C84.2271 178.219 84.9703 178.494 85.6777 178.856C86.3091 179.179 86.9084 179.561 87.5007 179.95C88.2291 180.427 88.9458 180.921 89.5859 181.514C90.0232 181.919 90.4227 182.365 90.8119 182.816C91.2146 183.283 91.6041 183.762 91.966 184.261C92.3865 184.842 92.7708 185.447 93.0987 186.085C93.2452 186.37 93.3734 186.664 93.5016 186.957C93.5339 187.031 93.5662 187.105 93.5987 187.179L93.9307 187.909C94.0812 188.229 94.2475 188.541 94.4137 188.854C94.5046 189.025 94.5954 189.195 94.6837 189.368L95.4089 190.805L95.6027 191.137L96.0636 191.701L96.61 192.065L96.947 192.171L97.7142 192.285L97.9122 193.015L97.9642 193.199L98.0789 193.744L99.2316 193.745L100.27 193.759C100.635 193.774 100.998 193.803 101.362 193.85C101.729 193.898 102.093 193.967 102.456 194.039C102.948 194.137 103.432 194.254 103.915 194.39C104.27 194.49 104.619 194.617 104.966 194.744C105.102 194.793 105.238 194.843 105.374 194.891L106.468 195.27C106.84 195.406 107.21 195.545 107.562 195.728C108.268 196.093 108.895 196.577 109.521 197.061C109.597 197.12 109.674 197.179 109.751 197.238L111.195 198.364L111.54 198.656L111.872 198.96C112.154 199.222 112.401 199.516 112.648 199.81C112.685 199.855 112.723 199.9 112.761 199.945L113.032 200.283L113.57 200.935L114.368 201.873L114.797 202.531L114.953 202.877L115.064 203.233L115.175 203.956L115.184 204.315L115.162 204.667L115.104 205.002L115.002 205.314L114.637 205.819L114.073 206.123L113.741 206.198L113.391 206.23L113.031 206.231L112.668 206.215L111.939 206.171C111.807 206.164 111.675 206.158 111.542 206.152C111.188 206.135 110.833 206.119 110.48 206.084L109.021 205.885C108.657 205.84 108.294 205.811 107.927 205.795L107.197 205.782L105.739 205.779C105.252 205.776 104.762 205.772 104.28 205.705L103.55 205.564C103.386 205.522 103.224 205.476 103.061 205.43C102.743 205.34 102.425 205.25 102.1 205.188C101.695 205.11 101.289 205.072 100.877 205.057L100.267 205.051L100.245 205.656L100.214 205.824L100.047 206.463L99.6826 207.065L99.1191 207.598L98.4366 208.03L97.7135 208.36C97.3517 208.5 96.9877 208.626 96.62 208.749C96.4845 208.795 96.3475 208.837 96.2105 208.878C95.9826 208.948 95.7545 209.017 95.5329 209.103C95.182 209.24 94.834 209.39 94.5477 209.643L94.0768 210.211L93.8125 210.894L93.7413 211.252L93.5981 212.288L93.4948 212.831L93.4175 213.299L91.2702 213.305L91.2793 213.195L91.4367 212.653L91.7737 211.615L91.8606 211.251L91.8848 210.524L91.7915 210.163L91.384 209.461L91.0962 209.126L90.1694 208.179C89.9115 207.894 89.6842 207.576 89.5645 207.207L89.4726 206.505L89.5068 206.145L89.6586 205.425L89.7832 204.745L89.7968 204.202L89.6899 203.592L88.9027 204.021L88.2146 204.392C87.7579 204.622 87.2881 204.849 86.772 204.903L86.4072 204.917L85.6785 204.789L84.9575 204.486L84.2772 204.085L83.7344 203.706L83.1246 203.228L82.8424 203.836L82.4991 204.359L82.0061 204.943L81.5288 205.385L80.9361 205.781L80.3334 205.051L80.1731 204.867L79.8419 204.322L80.4816 203.636L80.7822 203.33L81.3699 202.79L81.6905 202.517L82.3416 202.024L82.8795 201.685L83.4893 201.404L82.7598 198.851L82.9813 198.241L82.9771 198.064L83.0155 197.698L82.9963 197.375C82.9949 197.33 82.9933 197.284 82.9917 197.238C82.9807 196.923 82.9698 196.61 83.0284 196.297C83.1166 195.826 83.3211 195.393 83.5244 194.963C83.5439 194.922 83.5633 194.88 83.5826 194.839C83.6177 194.765 83.6527 194.69 83.6877 194.615C83.8722 194.221 84.0569 193.826 84.2537 193.438L84.5529 192.895L84.9483 192.285L84.4624 191.889L84.1547 191.439L83.879 190.805L83.6254 190.095L83.0455 188.638L82.9244 188.273L82.7263 187.544L82.5169 186.814C82.4018 186.474 82.2589 186.146 82.116 185.817C82.0492 185.664 81.9825 185.51 81.9185 185.355L81.1883 183.532C80.9818 183.04 80.7587 182.556 80.5329 182.073L80.1831 181.343L80.0129 180.978L79.8604 180.614L79.7336 180.25L79.5982 179.525L79.6495 178.824L79.7443 178.496L80.0542 177.907L80.4153 177.462ZM82.7598 213.805H91.1489C92.352 213.738 93.8007 213.78 95.1703 213.821L95.8912 213.987C96.4183 214.135 96.9057 214.421 97.3438 214.743L98.0405 215.333L98.3653 215.663L98.6645 216.008L99.1711 216.725L99.5486 217.453C99.7084 217.806 99.8227 218.177 99.9362 218.547C99.9722 218.664 100.007 218.782 100.041 218.9C100.15 219.275 100.259 219.649 100.423 220.006L100.817 220.735L101.304 221.465L101.542 221.83L101.937 222.559C102.098 222.909 102.213 223.278 102.327 223.646C102.404 223.893 102.481 224.141 102.573 224.383C102.77 224.905 103.011 225.407 103.253 225.909C103.473 226.368 103.694 226.827 103.881 227.301L104.142 228.03L104.251 228.395L104.56 229.489L104.815 230.219C104.98 230.65 105.176 231.07 105.371 231.489C105.457 231.673 105.543 231.857 105.626 232.042C105.787 232.402 105.937 232.766 106.071 233.137C106.176 233.429 106.265 233.725 106.354 234.022C106.375 234.092 106.396 234.161 106.417 234.231C106.427 234.265 106.437 234.299 106.448 234.333C106.588 234.795 106.727 235.255 106.942 235.69C107.149 236.11 107.413 236.494 107.677 236.879C107.738 236.969 107.8 237.059 107.861 237.149L108.097 237.513L108.472 238.243C108.588 238.508 108.671 238.787 108.754 239.064C108.781 239.155 108.808 239.247 108.837 239.337L109.087 240.067L109.545 241.161L109.989 242.255C110.224 242.859 110.444 243.469 110.662 244.079L111.057 245.173L111.837 246.997L112.268 248.091C112.516 248.698 112.765 249.306 113.043 249.9L113.377 250.582L113.902 251.528L114.066 251.842L114.366 252.501C114.559 252.955 114.727 253.418 114.896 253.882C115.035 254.263 115.173 254.645 115.326 255.021L115.638 255.751L116.134 256.845C116.299 257.233 116.446 257.628 116.594 258.023C116.629 258.116 116.663 258.21 116.699 258.304L117.12 259.398L117.565 260.492L118.173 261.951C118.316 262.322 118.446 262.699 118.575 263.075C118.74 263.555 118.904 264.035 119.099 264.504C119.254 264.876 119.417 265.243 119.605 265.599L120.396 267.057L120.567 267.422L121.02 268.516L121.479 269.611L122.096 271.07L122.114 271.112C122.313 271.581 122.511 272.05 122.688 272.529L123.066 273.623L123.329 274.352C123.515 274.844 123.715 275.329 123.921 275.811C123.973 275.933 124.025 276.054 124.077 276.175C124.285 276.658 124.493 277.14 124.672 277.635L125.155 279.094C125.292 279.47 125.448 279.832 125.633 280.188C125.787 280.486 125.963 280.771 126.138 281.057C126.259 281.252 126.379 281.448 126.492 281.647C126.695 282.003 126.879 282.363 127.036 282.741C127.15 283.015 127.24 283.297 127.33 283.579C127.357 283.665 127.384 283.75 127.412 283.836L127.44 283.922C127.552 284.261 127.662 284.599 127.796 284.93C127.96 285.335 128.153 285.727 128.346 286.119C128.566 286.567 128.787 287.015 128.964 287.483C129.104 287.854 129.212 288.235 129.32 288.616C129.351 288.725 129.382 288.833 129.413 288.942L129.646 289.671C129.801 290.126 130.005 290.562 130.208 290.996C130.229 291.041 130.249 291.086 130.27 291.13L130.448 291.495L130.494 291.593C130.708 292.041 130.922 292.49 131.1 292.954L131.353 293.684L131.547 294.413L131.689 295.143L131.756 295.87L131.736 296.23L131.667 296.58L131.35 297.215L130.821 297.686L130.501 297.84L130.16 297.944L129.445 298.039L129.081 298.053L127.988 298.061H125.799H113.763L110.115 298.06C109.629 298.057 109.144 298.055 108.658 298.021L107.943 297.902L107.274 297.63L106.692 297.173L106.206 296.562L105.802 295.866L105.293 294.778L104.966 294.048C104.944 294.001 104.923 293.953 104.901 293.905C104.76 293.591 104.619 293.277 104.495 292.954C104.371 292.63 104.266 292.299 104.161 291.967C104.032 291.563 103.904 291.158 103.74 290.766C103.474 290.128 103.144 289.519 102.739 288.958L102.207 288.294L101.92 287.999L101.298 287.502C100.976 287.28 100.619 287.101 100.262 286.943C99.7945 286.736 99.3125 286.575 98.8084 286.485C98.4473 286.421 98.0797 286.406 97.7142 286.396L96.2552 286.389H93.7021H82.0303H78.3829L76.9239 286.395L76.8849 286.395C76.5336 286.404 76.1776 286.412 75.8297 286.467L75.1017 286.627L74.7412 286.756L74.385 286.915C74.0392 287.106 73.6946 287.302 73.3962 287.565L73.1048 287.821C72.8357 288.094 72.5707 288.37 72.3533 288.687L71.9315 289.34L71.5511 290.042L70.8466 291.495L70.4747 292.225C70.4062 292.351 70.3372 292.477 70.2682 292.604C70.0076 293.08 69.7471 293.556 69.5158 294.048L68.8797 295.507L68.5078 296.23L68.0177 296.912L67.7235 297.215L67.4015 297.476L66.7055 297.84L65.981 298.006L65.617 298.039L64.5227 298.06L61.6048 298.061H49.9331H46.6504C46.5918 298.06 46.5332 298.06 46.4745 298.06C46.0485 298.06 45.6229 298.059 45.1971 298.039L44.5018 297.944L43.8906 297.686L43.4333 297.215L43.2751 296.912L43.102 296.23L43.0956 295.507L43.2217 294.778L43.6334 293.319L43.8315 292.589L44.1627 291.495C44.3218 291.004 44.4907 290.517 44.6785 290.036L44.8366 289.671L45.1914 288.942L45.5469 288.214C45.6501 287.987 45.7438 287.757 45.8374 287.526C45.9793 287.177 46.1212 286.828 46.2963 286.493C46.4123 286.271 46.5452 286.06 46.6783 285.849C46.7398 285.752 46.8013 285.654 46.8612 285.555C47.0604 285.227 47.2521 284.899 47.4148 284.551C47.6802 283.984 47.8648 283.388 48.0497 282.793C48.0927 282.654 48.1358 282.515 48.1799 282.377C48.3367 281.884 48.5091 281.397 48.7028 280.918C48.8519 280.548 49.0133 280.185 49.1822 279.823C49.2551 279.668 49.3301 279.513 49.4052 279.359C49.5646 279.03 49.7239 278.702 49.8625 278.364C50.0245 277.969 50.1579 277.563 50.2913 277.158C50.3995 276.829 50.5077 276.5 50.6312 276.176L51.2374 274.717C51.5858 273.875 51.9302 273.032 52.207 272.164L52.5347 271.07L52.8396 270.34C53.0099 270.007 53.2221 269.7 53.4343 269.394C53.5516 269.225 53.6689 269.055 53.7792 268.881L54.1974 268.152L54.3563 267.787C54.4602 267.537 54.5369 267.278 54.6136 267.018C54.6823 266.786 54.751 266.553 54.8393 266.328L54.9825 265.963L55.1435 265.599C55.1875 265.503 55.2318 265.408 55.2761 265.313C55.4572 264.925 55.6379 264.538 55.7967 264.14C55.9878 263.661 56.1534 263.17 56.3139 262.681C56.3667 262.52 56.4173 262.358 56.4679 262.196C56.5701 261.869 56.6724 261.542 56.7926 261.222C56.9464 260.813 57.1284 260.417 57.3105 260.02C57.4606 259.694 57.6108 259.367 57.7451 259.033C57.8565 258.756 57.9549 258.474 58.0533 258.192C58.1684 257.862 58.2836 257.532 58.4197 257.209C58.5773 256.836 58.7503 256.47 58.9462 256.115L59.5745 255.021C59.7733 254.663 59.9596 254.301 60.1259 253.927C60.3367 253.452 60.5141 252.963 60.6687 252.468C60.7249 252.289 60.7758 252.108 60.8268 251.927C60.9139 251.618 61.001 251.31 61.114 251.009C61.2639 250.61 61.4517 250.229 61.6395 249.848C61.8063 249.51 61.9731 249.171 62.1134 248.82C62.2633 248.446 62.381 248.061 62.4986 247.677C62.5308 247.571 62.5629 247.466 62.5957 247.361C62.7493 246.871 62.9061 246.381 63.0965 245.902C63.2582 245.497 63.4456 245.103 63.633 244.709C63.7897 244.38 63.9465 244.05 64.0882 243.714C64.1858 243.483 64.274 243.248 64.3623 243.013C64.5048 242.633 64.6472 242.254 64.829 241.89C65.0008 241.546 65.2033 241.221 65.406 240.896C65.5021 240.742 65.5982 240.588 65.691 240.431C65.9026 240.075 66.1014 239.717 66.2688 239.337C66.4361 238.958 66.5616 238.562 66.687 238.168C66.7177 238.071 66.7483 237.974 66.7796 237.878L66.7921 237.839C66.986 237.241 67.1801 236.643 67.4036 236.054L67.6943 235.325C67.7603 235.172 67.828 235.019 67.8958 234.866C68.0426 234.535 68.1894 234.204 68.3197 233.866L68.9616 232.042C69.1167 231.646 69.2917 231.257 69.4667 230.868C69.564 230.652 69.6613 230.436 69.7552 230.219C69.8813 229.927 70.0028 229.633 70.1242 229.339C70.3568 228.776 70.5894 228.214 70.8544 227.665L71.4158 226.571L72.1453 225.112L72.4836 224.383L72.7657 223.653L72.8804 223.289C72.9081 223.196 72.9353 223.104 72.9624 223.011C73.0795 222.613 73.1963 222.216 73.352 221.83C73.5066 221.447 73.6932 221.08 73.8798 220.712C74.0588 220.36 74.2378 220.007 74.3886 219.641C74.5363 219.282 74.6537 218.917 74.7675 218.547L74.9692 217.819C75.1088 217.338 75.2522 216.853 75.5163 216.422L75.7307 216.103L75.9864 215.8L76.2778 215.513L76.9403 214.981C77.4918 214.584 78.0959 214.245 78.7477 214.043C79.4495 213.827 80.183 213.817 80.9102 213.807L80.9361 213.807L82.7598 213.805ZM145.495 213.807L146.954 213.805H149.508H155.708L157.532 213.821L158.261 213.884L158.626 213.949C159.005 214.02 159.373 214.168 159.72 214.331C160.099 214.51 160.462 214.734 160.809 214.967C161.157 215.202 161.498 215.441 161.833 215.695L162.136 215.949L162.683 216.496C162.956 216.801 163.198 217.136 163.436 217.468C163.773 217.938 164.09 218.419 164.391 218.912L165.202 220.371L165.668 221.1C165.743 221.209 165.819 221.318 165.895 221.427C166.072 221.68 166.249 221.932 166.412 222.194L166.829 222.922C166.88 223.018 166.929 223.115 166.978 223.212C167.112 223.474 167.245 223.737 167.404 223.985L167.881 224.643L168.718 225.581C169.093 226.011 169.423 226.472 169.746 226.942C169.993 227.299 170.231 227.663 170.464 228.03L170.888 228.758L171.078 229.119C171.107 229.173 171.135 229.228 171.164 229.283C171.32 229.578 171.475 229.873 171.651 230.157C171.856 230.486 172.086 230.797 172.315 231.109C172.469 231.317 172.623 231.526 172.769 231.74C172.983 232.051 173.184 232.37 173.386 232.689C173.637 233.086 173.888 233.484 174.162 233.866C174.383 234.175 174.618 234.474 174.853 234.773C175.091 235.075 175.329 235.377 175.552 235.69C175.97 236.274 176.34 236.888 176.71 237.502C176.859 237.75 177.008 237.997 177.16 238.243L177.859 239.337L178.574 240.431C178.726 240.677 178.869 240.928 179.012 241.179C179.219 241.543 179.426 241.908 179.661 242.255C179.941 242.671 180.255 243.06 180.569 243.449C180.64 243.537 180.711 243.625 180.782 243.714C181.167 244.196 181.551 244.678 181.92 245.173L181.945 245.205C182.204 245.553 182.464 245.902 182.698 246.267L183.126 246.995L183.646 248.051L184.057 248.662L184.606 249.113L185.266 249.338L185.617 249.35L186.307 249.159L186.629 248.959L187.186 248.402L187.618 247.719L187.991 246.996L188.41 246.267L188.655 245.903C188.825 245.653 189.009 245.413 189.193 245.173C189.286 245.052 189.379 244.931 189.47 244.808C189.737 244.45 190 244.091 190.24 243.714C190.475 243.345 190.682 242.961 190.889 242.577C190.947 242.47 191.005 242.363 191.063 242.256C191.328 241.771 191.596 241.287 191.906 240.829C192.136 240.49 192.387 240.173 192.646 239.857C192.718 239.769 192.79 239.682 192.863 239.595C193.05 239.373 193.237 239.15 193.403 238.91C193.669 238.524 193.883 238.108 194.097 237.692C194.255 237.386 194.413 237.079 194.592 236.784C194.809 236.427 195.049 236.088 195.29 235.748L195.33 235.691L196.313 234.293C196.591 233.88 196.854 233.459 197.11 233.033C197.197 232.887 197.284 232.74 197.371 232.594C197.627 232.162 197.882 231.731 198.158 231.311C198.402 230.94 198.658 230.577 198.921 230.219L199.739 229.124L200.507 228.03C200.918 227.428 201.321 226.819 201.716 226.206L202.394 225.112L203.271 223.655C203.301 223.604 203.332 223.553 203.363 223.502C203.55 223.195 203.737 222.887 203.942 222.592L204.435 221.934L204.706 221.619C204.808 221.502 204.913 221.388 205.018 221.274C205.198 221.079 205.378 220.883 205.541 220.673L206.018 219.992L206.22 219.635C206.286 219.51 206.352 219.383 206.417 219.257C206.604 218.892 206.791 218.529 207.012 218.182C207.254 217.802 207.527 217.446 207.801 217.089L208.092 216.729C208.117 216.7 208.141 216.671 208.166 216.642C208.441 216.32 208.715 215.999 209.023 215.707C209.345 215.402 209.689 215.132 210.06 214.889L210.785 214.476L211.149 214.304L211.514 214.159L212.243 213.948C212.814 213.823 213.399 213.816 213.981 213.808L214.067 213.807L215.891 213.805H223.915H225.739L226.833 213.807L226.933 213.808C227.632 213.817 228.345 213.826 229.015 214.043L229.711 214.337L230.032 214.538L230.322 214.773L230.779 215.343L231.051 216.009L231.17 216.725L231.193 217.089L231.21 218.912V232.042V281.647V293.319L231.204 295.143L231.17 295.87L231.126 296.23L230.939 296.912L230.779 297.215L230.574 297.476L230.322 297.686C230.046 297.876 229.699 297.969 229.37 298.006C228.869 298.064 228.364 298.062 227.861 298.061C227.761 298.061 227.662 298.06 227.562 298.061H220.997H212.973L211.879 298.058L211.515 298.053L210.798 298.006L210.454 297.944L210.124 297.84L209.534 297.476L209.286 297.215L208.908 296.58L208.698 295.87L208.616 295.143L208.596 294.048L208.596 291.495V286.754V269.246V263.41L208.595 261.222L208.595 261.097C208.594 260.652 208.593 260.207 208.563 259.763C208.525 259.219 208.44 258.682 208.355 258.145C208.347 258.095 208.339 258.046 208.331 257.997L208.298 257.819L208.231 257.209L207.637 257.539L207.154 257.9L206.615 258.423L205.832 259.35L205.561 259.664C205.469 259.771 205.374 259.876 205.28 259.982C205.012 260.282 204.744 260.583 204.519 260.919C204.287 261.264 204.105 261.639 203.924 262.012C203.875 262.114 203.825 262.216 203.775 262.317L203.381 263.045L202.515 264.504L201.919 265.599L201.109 267.057L200.725 267.781L200.536 268.137C200.341 268.483 200.145 268.825 199.904 269.142L198.895 270.402L198.453 271.084L198.26 271.44C198.206 271.541 198.153 271.642 198.101 271.743C197.963 272.008 197.825 272.272 197.673 272.529C197.528 272.775 197.376 273.017 197.225 273.26C197 273.62 196.775 273.98 196.569 274.352L196.013 275.447L195.615 276.176L195.171 276.906L194.745 277.635C194.623 277.852 194.512 278.075 194.402 278.298C194.269 278.567 194.136 278.836 193.982 279.094L193.504 279.823L192.673 280.918C192.411 281.271 192.172 281.635 191.944 282.012L191.333 283.106L190.904 283.836L190.248 284.93L189.447 286.389C189.164 286.882 188.863 287.366 188.552 287.842L188.085 288.537L187.842 288.859L187.583 289.149L186.999 289.606L186.331 289.872L185.976 289.937H185.254L184.537 289.764L184.192 289.606L183.548 289.149L182.985 288.537L182.496 287.842L182.054 287.118L181.847 286.754L181.455 286.03L181.071 285.327L180.864 284.992L180.397 284.355L179.633 283.409L179.178 282.727L178.782 282.01L178.403 281.282L177.801 280.188L176.29 277.635L175.88 276.906C175.824 276.803 175.769 276.701 175.714 276.599C175.503 276.209 175.293 275.819 175.054 275.447L174.548 274.717C174.444 274.581 174.34 274.446 174.235 274.311C173.877 273.85 173.52 273.389 173.211 272.893C172.991 272.541 172.802 272.172 172.614 271.802C172.488 271.556 172.362 271.31 172.228 271.07L171.148 269.246C170.955 268.902 170.773 268.552 170.592 268.202C170.327 267.692 170.063 267.183 169.764 266.693C169.537 266.321 169.293 265.962 169.045 265.604L168.527 264.902C168.419 264.757 168.308 264.615 168.197 264.472C167.981 264.194 167.765 263.915 167.572 263.62C167.367 263.307 167.191 262.982 167.024 262.648L166.506 261.585C166.166 260.954 165.774 260.355 165.37 259.765C165.127 259.41 164.884 259.06 164.618 258.723L164.079 258.161L163.596 257.813L163.003 257.574C162.982 257.686 162.961 257.797 162.94 257.909C162.845 258.406 162.75 258.904 162.7 259.407C162.646 259.959 162.643 260.512 162.64 261.065C162.64 261.117 162.639 261.17 162.639 261.222L162.638 262.681V267.422V282.741V292.589L162.638 293.684L162.633 294.413C162.631 294.456 162.63 294.499 162.629 294.542C162.619 294.864 162.61 295.188 162.555 295.506C162.47 296 162.308 296.478 162.003 296.883L161.461 297.425L160.798 297.79L160.084 297.977L159.356 298.044L158.626 298.059L157.167 298.061H145.495L143.307 298.06L142.578 298.053L142.215 298.039L141.505 297.944L141.173 297.84L140.87 297.686L140.609 297.476L140.399 297.215L140.244 296.912L140.14 296.58L140.078 296.23L140.031 295.507L140.024 294.413V292.225V279.823V233.137V219.276L140.025 218.182L140.03 217.453L140.064 216.729L140.108 216.373L140.295 215.698L140.66 215.108L140.912 214.86L141.523 214.468L142.218 214.21L142.943 214.035C143.306 213.968 143.668 213.905 144.036 213.868C144.522 213.819 145.008 213.813 145.495 213.807ZM253.824 213.807L255.647 213.805L266.225 213.805L267.319 213.806L268.049 213.811L268.098 213.812C268.685 213.831 269.289 213.85 269.839 214.076L270.496 214.441L270.805 214.693L271.1 214.983L271.381 215.304L271.873 215.999C272.068 216.335 272.239 216.703 272.311 217.088L272.372 217.453L272.404 217.817L272.425 218.912L272.425 221.83V234.96V280.188V290.766L272.425 294.048C272.424 294.136 272.424 294.224 272.424 294.312C272.424 294.587 272.425 294.863 272.404 295.137C272.378 295.49 272.335 295.838 272.212 296.173C272.057 296.595 271.787 296.951 271.518 297.305L271.466 297.374L271.34 297.518L270.966 298.061H250.541L250.25 297.273L250.032 296.585L249.888 295.87C249.814 295.351 249.813 294.823 249.813 294.298C249.813 294.215 249.813 294.132 249.812 294.048L249.811 292.225V286.754V265.599V241.161V222.924L249.812 218.547C249.815 218.06 249.818 217.574 249.85 217.088L249.955 216.36L250.18 215.645L250.343 215.304L250.779 214.693L251.05 214.441L251.349 214.236L252.016 213.963L252.731 213.845C253.096 213.82 253.458 213.812 253.824 213.807ZM87.1312 250.13L87.8662 249.915L88.0752 250.524L88.1514 250.702L88.2988 251.067L88.615 251.747C88.8065 252.139 89.0155 252.522 89.2244 252.905C89.4091 253.243 89.5938 253.582 89.7665 253.927C89.9178 254.229 90.0508 254.541 90.1838 254.853C90.2597 255.031 90.3357 255.209 90.415 255.386L91.0741 256.845L91.3261 257.574L91.5216 258.304C91.6197 258.671 91.719 259.036 91.8371 259.398L92.0946 260.127L92.6593 261.586L92.9711 262.316L93.2698 263.045L93.4945 263.774L93.5937 264.497L93.5842 264.849L93.4259 265.497L93.2706 265.776L92.8143 266.212L92.2033 266.484L91.5081 266.624L90.7838 266.678C90.4131 266.697 90.0408 266.695 89.6691 266.694C89.5544 266.693 89.4397 266.693 89.3252 266.693H87.5014H85.313L83.854 266.687L83.126 266.653L82.7653 266.609L82.0704 266.422L81.4646 266.057L81.2224 265.805L81.0397 265.515L80.8715 264.853L80.9576 264.138L81.0648 263.774L81.326 263.045L81.4507 262.681L81.6696 261.951L81.7783 261.586L82.0376 260.857L82.5165 259.763L83.0031 258.668L83.3335 257.939L83.6439 257.209C83.6959 257.077 83.7466 256.944 83.7973 256.811C83.9335 256.454 84.0697 256.098 84.2297 255.75C84.3815 255.421 84.5527 255.102 84.7239 254.783C84.9388 254.382 85.1536 253.982 85.3298 253.562C85.5191 253.11 85.6583 252.641 85.7976 252.173C85.8399 252.03 85.8823 251.887 85.9261 251.745L86.048 251.395L86.3755 250.76L86.8241 250.29L87.1312 250.13Z" fill="black"/>
</svg>
